<svg width="16" height="16" viewBox="0 0 16 16" fill="none" xmlns="http://www.w3.org/2000/svg">
    <path d="M7.29289 8.34859C7.68342 8.73911 8.31658 8.73911 8.70711 8.34859L15.0711 1.98463C15.4616 1.5941 15.4616 0.960938 15.0711 0.570414C14.6805 0.179889 14.0474 0.179889 13.6569 0.570414L8 6.22727L2.34315 0.570413C1.95262 0.179889 1.31946 0.179889 0.928932 0.570413C0.538408 0.960937 0.538408 1.5941 0.928932 1.98463L7.29289 8.34859ZM7 6L7 7.64148L9 7.64148L9 6L7 6Z" fill="black"/>
    <path d="M7.57512 14.771C7.96564 15.1615 8.59881 15.1615 8.98933 14.771L15.3533 8.40699C15.7438 8.01647 15.7438 7.3833 15.3533 6.99278C14.9628 6.60225 14.3296 6.60225 13.9391 6.99278L8.28223 12.6496L2.62537 6.99278C2.23485 6.60225 1.60168 6.60225 1.21116 6.99278C0.820635 7.3833 0.820635 8.01647 1.21116 8.40699L7.57512 14.771ZM7.28223 12.4224L7.28223 14.0638L9.28223 14.0638L9.28223 12.4224L7.28223 12.4224Z" fill="black"/>
</svg>
