<svg class="svgImageRaw" width="127" height="17" viewBox="0 0 127 17" fill="none" xmlns="http://www.w3.org/2000/svg">
    <path d="M9.56 12.64C10.5333 12.64 11.2933 12.4533 11.84 12.08C12.16 11.8533 12.3667 11.62 12.46 11.38H19.68C19.48 12.14 19.1867 12.8133 18.8 13.4C18.4133 13.9867 17.9067 14.4867 17.28 14.9C16.4533 15.4333 15.3733 15.8333 14.04 16.1C12.7067 16.3667 11.0467 16.5 9.06 16.5C5.98 16.5 3.74667 16.0933 2.36 15.28C0.973333 14.4533 0.28 13.24 0.28 11.64C0.28 10.68 0.46 9.76667 0.82 8.9C1.18 8.03333 1.7 7.31333 2.38 6.74C3.22 6.04667 4.33333 5.52667 5.72 5.18C7.10667 4.82 8.83333 4.64 10.9 4.64C13.3 4.64 15.1733 4.85333 16.52 5.28C17.8667 5.69333 18.78 6.26667 19.26 7C19.7533 7.73333 19.9733 8.62667 19.92 9.68H12.84C12.56 8.88 11.74 8.48 10.38 8.48C9.20667 8.48 8.32667 8.77333 7.74 9.36C7.5 9.58667 7.31333 9.85333 7.18 10.16C7.04667 10.4667 6.98 10.7667 6.98 11.06C6.98 11.58 7.18 11.9733 7.58 12.24C7.99333 12.5067 8.65333 12.64 9.56 12.64ZM34.6358 15.96C33.2491 16.32 31.5224 16.5 29.4558 16.5C26.3624 16.5 24.1224 16.0933 22.7358 15.28C21.3624 14.4533 20.6758 13.24 20.6758 11.64C20.6758 10.68 20.8491 9.77333 21.1958 8.92C21.5558 8.05333 22.0758 7.33333 22.7558 6.76C23.5958 6.06667 24.7091 5.54 26.0958 5.18C27.4824 4.82 29.2091 4.64 31.2758 4.64C34.3691 4.64 36.6091 5.05333 37.9958 5.88C39.3824 6.69333 40.0758 7.9 40.0758 9.5C40.0758 10.46 39.8958 11.3733 39.5358 12.24C39.1758 13.0933 38.6558 13.8067 37.9758 14.38C37.1491 15.0733 36.0358 15.6 34.6358 15.96ZM32.7558 8.92C32.3424 8.64 31.6824 8.5 30.7758 8.5C29.5758 8.5 28.6891 8.78667 28.1158 9.36C27.8891 9.58667 27.7091 9.85333 27.5758 10.16C27.4424 10.4667 27.3758 10.76 27.3758 11.04C27.3758 11.5733 27.5758 11.9733 27.9758 12.24C28.3891 12.5067 29.0491 12.64 29.9558 12.64C31.1424 12.64 32.0358 12.3533 32.6358 11.78C32.8624 11.54 33.0424 11.2667 33.1758 10.96C33.3091 10.6533 33.3758 10.3667 33.3758 10.1C33.3758 9.58 33.1691 9.18667 32.7558 8.92ZM42.1367 5.16H48.6167L46.4967 16H40.0167L42.1367 5.16ZM42.7967 1.44H49.3567L48.8567 4.02H42.3167L42.7967 1.44ZM55.9953 6.56H56.1153C56.942 6.01333 57.8153 5.59333 58.7353 5.3C59.6553 5.00667 60.722 4.86 61.9353 4.86C63.602 4.86 64.8886 5.16 65.7953 5.76C66.702 6.34667 67.1553 7.21333 67.1553 8.36C67.1553 8.69333 67.1286 9.01333 67.0753 9.32L65.7953 16H59.3153L60.2153 11.38C60.2553 11.1533 60.2753 10.9667 60.2753 10.82C60.2753 9.87333 59.622 9.4 58.3153 9.4C57.582 9.4 56.902 9.6 56.2753 10C55.622 10.4267 55.222 11.04 55.0753 11.84L54.2753 16H47.7953L49.8953 5.16H56.2553L55.9953 6.56ZM67.2169 16L69.9569 1.72H76.5169L73.7769 16H67.2169ZM83.368 6.56H83.488C84.3146 6.01333 85.188 5.59333 86.108 5.3C87.028 5.00667 88.0946 4.86 89.308 4.86C90.9746 4.86 92.2613 5.16 93.168 5.76C94.0746 6.34667 94.528 7.21333 94.528 8.36C94.528 8.69333 94.5013 9.01333 94.448 9.32L93.168 16H86.688L87.588 11.38C87.628 11.1533 87.648 10.9667 87.648 10.82C87.648 9.87333 86.9946 9.4 85.688 9.4C84.9546 9.4 84.2746 9.6 83.648 10C82.9946 10.4267 82.5946 11.04 82.448 11.84L81.648 16H75.168L77.268 5.16H83.628L83.368 6.56ZM106.97 3.94C106.076 3.94 105.463 4.07333 105.13 4.34C104.916 4.52667 104.803 4.8 104.79 5.16H108.09L107.47 8.32H104.17L102.67 16H96.1895L97.6895 8.32H95.6095L96.2295 5.16H98.3095L98.4695 4.34C98.6029 3.68667 98.8162 3.14667 99.1095 2.72C99.4162 2.28 99.8095 1.92667 100.29 1.66C100.85 1.34 101.536 1.12667 102.35 1.02C103.163 0.913333 104.183 0.859999 105.41 0.859999C106.543 0.859999 107.75 0.939999 109.03 1.1L108.47 4C107.79 3.96 107.29 3.94 106.97 3.94ZM121.383 15.96C119.996 16.32 118.269 16.5 116.203 16.5C113.109 16.5 110.869 16.0933 109.483 15.28C108.109 14.4533 107.423 13.24 107.423 11.64C107.423 10.68 107.596 9.77333 107.943 8.92C108.303 8.05333 108.823 7.33333 109.503 6.76C110.343 6.06667 111.456 5.54 112.843 5.18C114.229 4.82 115.956 4.64 118.023 4.64C121.116 4.64 123.356 5.05333 124.743 5.88C126.129 6.69333 126.823 7.9 126.823 9.5C126.823 10.46 126.643 11.3733 126.283 12.24C125.923 13.0933 125.403 13.8067 124.723 14.38C123.896 15.0733 122.783 15.6 121.383 15.96ZM119.503 8.92C119.089 8.64 118.429 8.5 117.523 8.5C116.323 8.5 115.436 8.78667 114.863 9.36C114.636 9.58667 114.456 9.85333 114.323 10.16C114.189 10.4667 114.123 10.76 114.123 11.04C114.123 11.5733 114.323 11.9733 114.723 12.24C115.136 12.5067 115.796 12.64 116.703 12.64C117.889 12.64 118.783 12.3533 119.383 11.78C119.609 11.54 119.789 11.2667 119.923 10.96C120.056 10.6533 120.123 10.3667 120.123 10.1C120.123 9.58 119.916 9.18667 119.503 8.92Z" fill="white" fill-opacity="0.6"/>
</svg>
