<svg width="139" height="32" viewBox="0 0 139 32" fill="none" xmlns="http://www.w3.org/2000/svg">
    <g filter="url(#filter0_f_205_74)">
        <path d="M4.43 27L8.54 5.58H18.38L15.65 19.83H33.2L31.82 27H4.43ZM54.8938 26.85C52.4338 27.51 49.4538 27.84 45.9538 27.84C40.7738 27.84 36.9138 27.08 34.3738 25.56C31.8538 24.04 30.5938 21.71 30.5938 18.57C30.5938 16.67 30.9538 14.86 31.6738 13.14C32.4138 11.4 33.4538 9.94 34.7938 8.76C36.3338 7.4 38.3338 6.39 40.7938 5.73C43.2738 5.07 46.2638 4.74 49.7638 4.74C54.9438 4.74 58.7938 5.5 61.3138 7.02C63.8538 8.54 65.1238 10.87 65.1238 14.01C65.1238 15.89 64.7638 17.7 64.0438 19.44C63.3238 21.18 62.2938 22.64 60.9538 23.82C59.3938 25.18 57.3738 26.19 54.8938 26.85ZM52.9738 12.6C52.0938 11.92 50.6938 11.58 48.7738 11.58C46.2938 11.58 44.3838 12.23 43.0438 13.53C42.5238 14.05 42.1238 14.66 41.8438 15.36C41.5638 16.06 41.4238 16.75 41.4238 17.43C41.4238 18.47 41.8638 19.33 42.7438 20.01C43.6238 20.67 45.0238 21 46.9438 21C49.4638 21 51.3738 20.35 52.6738 19.05C53.1938 18.53 53.5938 17.92 53.8738 17.22C54.1538 16.52 54.2938 15.83 54.2938 15.15C54.2938 14.11 53.8538 13.26 52.9738 12.6ZM84.6765 13.65C84.5165 13.15 84.0765 12.68 83.3565 12.24C82.6565 11.8 81.5665 11.58 80.0865 11.58C77.6665 11.58 75.7965 12.24 74.4765 13.56C73.9365 14.08 73.5265 14.71 73.2465 15.45C72.9665 16.17 72.8265 16.9 72.8265 17.64C72.8265 18.84 73.3065 19.76 74.2665 20.4C75.2465 21.02 76.6665 21.33 78.5265 21.33C79.6865 21.33 80.7065 21.23 81.5865 21.03C82.4665 20.81 83.1565 20.57 83.6565 20.31C84.1765 20.03 84.4765 19.82 84.5565 19.68H79.4865L80.3565 15.24H96.0465L93.7665 27.03H87.3465L87.8265 24.63C86.6465 25.77 85.1365 26.59 83.2965 27.09C81.4565 27.59 79.4865 27.84 77.3865 27.84C72.2065 27.84 68.3465 27.08 65.8065 25.56C63.2665 24.04 61.9965 21.71 61.9965 18.57C61.9965 16.73 62.3565 14.94 63.0765 13.2C63.8165 11.46 64.8465 10 66.1665 8.82C67.7065 7.44 69.7165 6.42 72.1965 5.76C74.6765 5.08 77.6565 4.74 81.1365 4.74C86.3565 4.74 90.1965 5.42 92.6565 6.78C95.1165 8.12 96.3465 10.04 96.3465 12.54C96.3465 12.76 96.3265 13.13 96.2865 13.65H84.6765ZM91.6948 27L95.8048 5.58H105.645L101.535 27H91.6948ZM134.641 5.58L130.531 27H119.941L111.241 15.81H111.001L108.841 27H99.6015L103.711 5.58H114.421L123.001 16.59H123.241L125.371 5.58H134.641Z" fill="#FFEBEB"/>
    </g>
    <defs>
        <filter id="filter0_f_205_74" x="0.429932" y="0.740234" width="138.212" height="31.0996" filterUnits="userSpaceOnUse" color-interpolation-filters="sRGB">
            <feFlood flood-opacity="0" result="BackgroundImageFix"/>
            <feBlend mode="normal" in="SourceGraphic" in2="BackgroundImageFix" result="shape"/>
            <feGaussianBlur stdDeviation="2" result="effect1_foregroundBlur_205_74"/>
        </filter>
    </defs>
</svg>
