<svg width="310" height="50" viewBox="0 0 310 50" fill="none" xmlns="http://www.w3.org/2000/svg">
    <path d="M12.52 23.95C12.72 24.87 13.2 25.53 13.96 25.93C14.74 26.31 15.84 26.5 17.26 26.5C19.14 26.5 20.44 26.26 21.16 25.78C21.62 25.48 21.85 25.11 21.85 24.67C21.85 24.25 21.65 23.95 21.25 23.77C20.87 23.59 20.22 23.45 19.3 23.35L10.84 22.45C8.26 22.17 6.31 21.64 4.99 20.86C3.69 20.06 3.04 18.79 3.04 17.05C3.04 15.85 3.28 14.75 3.76 13.75C4.26 12.75 4.98 11.92 5.92 11.26C7.24 10.34 9.03 9.69 11.29 9.31C13.57 8.93 16.49 8.74 20.05 8.74C24.79 8.74 28.34 9.23 30.7 10.21C33.08 11.17 34.27 12.82 34.27 15.16C34.27 15.34 34.25 15.65 34.21 16.09H22.93C22.77 15.43 22.32 14.93 21.58 14.59C20.86 14.23 19.85 14.05 18.55 14.05C16.79 14.05 15.6 14.28 14.98 14.74C14.56 15.04 14.35 15.36 14.35 15.7C14.35 16.04 14.54 16.3 14.92 16.48C15.32 16.64 15.98 16.77 16.9 16.87L25.81 17.68C28.39 17.92 30.32 18.46 31.6 19.3C32.9 20.12 33.55 21.38 33.55 23.08C33.55 24.52 33.24 25.84 32.62 27.04C32 28.22 31.1 29.15 29.92 29.83C28.58 30.59 26.79 31.11 24.55 31.39C22.33 31.69 19.39 31.84 15.73 31.84C12.31 31.84 9.53 31.64 7.39 31.24C5.27 30.84 3.67 30.16 2.59 29.2C1.51 28.22 0.97 26.88 0.97 25.18C0.97 24.78 1 24.37 1.06 23.95H12.52ZM71.5405 31H61.7005L64.2505 17.71H64.0105L56.0605 31H49.0705L46.1005 17.62H45.8305L43.2805 31H34.0405L38.1505 9.58H52.3405L54.3205 19.75H54.5605L60.2305 9.58H75.6505L71.5405 31ZM73.8327 31L77.9427 9.58H87.7827L83.6727 31H73.8327ZM85.9394 31L90.0494 9.58H99.8894L97.1594 23.83H114.709L113.329 31H85.9394ZM127.605 17.53H143.985L143.025 22.45H126.645L126.105 25.24H143.595L142.485 31H115.185L119.295 9.58H146.355L145.305 15.01H128.085L127.605 17.53ZM165.848 24.97L164.648 31H154.748L155.978 24.97L147.128 9.58H158.558L162.008 16.84L168.368 9.58H180.608L165.848 24.97ZM206.29 19.54C207.31 19.9 208.11 20.38 208.69 20.98C209.27 21.58 209.56 22.44 209.56 23.56C209.56 25.6 209.05 27.22 208.03 28.42C206.57 30.14 203.98 31 200.26 31H177.19L181.33 9.58H203.32C205.78 9.58 207.58 10.02 208.72 10.9C209.86 11.76 210.43 12.94 210.43 14.44C210.43 15.34 210.28 16.12 209.98 16.78C209.7 17.42 209.24 17.94 208.6 18.34C207.82 18.82 207.06 19.14 206.32 19.3L206.29 19.54ZM197.5 18.07C198.28 18.07 198.86 17.84 199.24 17.38C199.4 17.2 199.52 17 199.6 16.78C199.7 16.54 199.75 16.33 199.75 16.15C199.75 15.31 199.21 14.89 198.13 14.89H190.15L189.52 18.07H197.5ZM196.33 25.9C197.19 25.9 197.83 25.65 198.25 25.15C198.43 24.93 198.56 24.7 198.64 24.46C198.74 24.22 198.79 24 198.79 23.8C198.79 22.88 198.2 22.42 197.02 22.42H188.68L187.99 25.9H196.33ZM232.788 28.51H221.028L219.348 31H208.308L223.488 9.58H236.898L243.888 31H233.568L232.788 28.51ZM231.018 22.9L229.098 16.78H228.918L224.808 22.9H231.018ZM244.822 31L248.932 9.58H258.772L256.042 23.83H273.592L272.212 31H244.822ZM274.068 31L278.178 9.58H288.018L285.288 23.83H302.838L301.458 31H274.068Z" fill="#BDCBCB"/>
    <path d="M18.52 28.95C18.72 29.87 19.2 30.53 19.96 30.93C20.74 31.31 21.84 31.5 23.26 31.5C25.14 31.5 26.44 31.26 27.16 30.78C27.62 30.48 27.85 30.11 27.85 29.67C27.85 29.25 27.65 28.95 27.25 28.77C26.87 28.59 26.22 28.45 25.3 28.35L16.84 27.45C14.26 27.17 12.31 26.64 10.99 25.86C9.69 25.06 9.04 23.79 9.04 22.05C9.04 20.85 9.28 19.75 9.76 18.75C10.26 17.75 10.98 16.92 11.92 16.26C13.24 15.34 15.03 14.69 17.29 14.31C19.57 13.93 22.49 13.74 26.05 13.74C30.79 13.74 34.34 14.23 36.7 15.21C39.08 16.17 40.27 17.82 40.27 20.16C40.27 20.34 40.25 20.65 40.21 21.09H28.93C28.77 20.43 28.32 19.93 27.58 19.59C26.86 19.23 25.85 19.05 24.55 19.05C22.79 19.05 21.6 19.28 20.98 19.74C20.56 20.04 20.35 20.36 20.35 20.7C20.35 21.04 20.54 21.3 20.92 21.48C21.32 21.64 21.98 21.77 22.9 21.87L31.81 22.68C34.39 22.92 36.32 23.46 37.6 24.3C38.9 25.12 39.55 26.38 39.55 28.08C39.55 29.52 39.24 30.84 38.62 32.04C38 33.22 37.1 34.15 35.92 34.83C34.58 35.59 32.79 36.11 30.55 36.39C28.33 36.69 25.39 36.84 21.73 36.84C18.31 36.84 15.53 36.64 13.39 36.24C11.27 35.84 9.67 35.16 8.59 34.2C7.51 33.22 6.97 31.88 6.97 30.18C6.97 29.78 7 29.37 7.06 28.95H18.52ZM77.5405 36H67.7005L70.2505 22.71H70.0105L62.0605 36H55.0705L52.1005 22.62H51.8305L49.2805 36H40.0405L44.1505 14.58H58.3405L60.3205 24.75H60.5605L66.2305 14.58H81.6505L77.5405 36ZM79.8327 36L83.9427 14.58H93.7827L89.6727 36H79.8327ZM91.9394 36L96.0494 14.58H105.889L103.159 28.83H120.709L119.329 36H91.9394ZM133.605 22.53H149.985L149.025 27.45H132.645L132.105 30.24H149.595L148.485 36H121.185L125.295 14.58H152.355L151.305 20.01H134.085L133.605 22.53ZM171.848 29.97L170.648 36H160.748L161.978 29.97L153.128 14.58H164.558L168.008 21.84L174.368 14.58H186.608L171.848 29.97ZM212.29 24.54C213.31 24.9 214.11 25.38 214.69 25.98C215.27 26.58 215.56 27.44 215.56 28.56C215.56 30.6 215.05 32.22 214.03 33.42C212.57 35.14 209.98 36 206.26 36H183.19L187.33 14.58H209.32C211.78 14.58 213.58 15.02 214.72 15.9C215.86 16.76 216.43 17.94 216.43 19.44C216.43 20.34 216.28 21.12 215.98 21.78C215.7 22.42 215.24 22.94 214.6 23.34C213.82 23.82 213.06 24.14 212.32 24.3L212.29 24.54ZM203.5 23.07C204.28 23.07 204.86 22.84 205.24 22.38C205.4 22.2 205.52 22 205.6 21.78C205.7 21.54 205.75 21.33 205.75 21.15C205.75 20.31 205.21 19.89 204.13 19.89H196.15L195.52 23.07H203.5ZM202.33 30.9C203.19 30.9 203.83 30.65 204.25 30.15C204.43 29.93 204.56 29.7 204.64 29.46C204.74 29.22 204.79 29 204.79 28.8C204.79 27.88 204.2 27.42 203.02 27.42H194.68L193.99 30.9H202.33ZM238.788 33.51H227.028L225.348 36H214.308L229.488 14.58H242.898L249.888 36H239.568L238.788 33.51ZM237.018 27.9L235.098 21.78H234.918L230.808 27.9H237.018ZM250.822 36L254.932 14.58H264.772L262.042 28.83H279.592L278.212 36H250.822ZM280.068 36L284.178 14.58H294.018L291.288 28.83H308.838L307.458 36H280.068Z" fill="white" fill-opacity="0.6"/>
    <path d="M15.52 26.95C15.72 27.87 16.2 28.53 16.96 28.93C17.74 29.31 18.84 29.5 20.26 29.5C22.14 29.5 23.44 29.26 24.16 28.78C24.62 28.48 24.85 28.11 24.85 27.67C24.85 27.25 24.65 26.95 24.25 26.77C23.87 26.59 23.22 26.45 22.3 26.35L13.84 25.45C11.26 25.17 9.31 24.64 7.99 23.86C6.69 23.06 6.04 21.79 6.04 20.05C6.04 18.85 6.28 17.75 6.76 16.75C7.26 15.75 7.98 14.92 8.92 14.26C10.24 13.34 12.03 12.69 14.29 12.31C16.57 11.93 19.49 11.74 23.05 11.74C27.79 11.74 31.34 12.23 33.7 13.21C36.08 14.17 37.27 15.82 37.27 18.16C37.27 18.34 37.25 18.65 37.21 19.09H25.93C25.77 18.43 25.32 17.93 24.58 17.59C23.86 17.23 22.85 17.05 21.55 17.05C19.79 17.05 18.6 17.28 17.98 17.74C17.56 18.04 17.35 18.36 17.35 18.7C17.35 19.04 17.54 19.3 17.92 19.48C18.32 19.64 18.98 19.77 19.9 19.87L28.81 20.68C31.39 20.92 33.32 21.46 34.6 22.3C35.9 23.12 36.55 24.38 36.55 26.08C36.55 27.52 36.24 28.84 35.62 30.04C35 31.22 34.1 32.15 32.92 32.83C31.58 33.59 29.79 34.11 27.55 34.39C25.33 34.69 22.39 34.84 18.73 34.84C15.31 34.84 12.53 34.64 10.39 34.24C8.27 33.84 6.67 33.16 5.59 32.2C4.51 31.22 3.97 29.88 3.97 28.18C3.97 27.78 4 27.37 4.06 26.95H15.52ZM74.5405 34H64.7005L67.2505 20.71H67.0105L59.0605 34H52.0705L49.1005 20.62H48.8305L46.2805 34H37.0405L41.1505 12.58H55.3405L57.3205 22.75H57.5605L63.2305 12.58H78.6505L74.5405 34ZM76.8327 34L80.9427 12.58H90.7827L86.6727 34H76.8327ZM88.9394 34L93.0494 12.58H102.889L100.159 26.83H117.709L116.329 34H88.9394ZM130.605 20.53H146.985L146.025 25.45H129.645L129.105 28.24H146.595L145.485 34H118.185L122.295 12.58H149.355L148.305 18.01H131.085L130.605 20.53ZM168.848 27.97L167.648 34H157.748L158.978 27.97L150.128 12.58H161.558L165.008 19.84L171.368 12.58H183.608L168.848 27.97ZM209.29 22.54C210.31 22.9 211.11 23.38 211.69 23.98C212.27 24.58 212.56 25.44 212.56 26.56C212.56 28.6 212.05 30.22 211.03 31.42C209.57 33.14 206.98 34 203.26 34H180.19L184.33 12.58H206.32C208.78 12.58 210.58 13.02 211.72 13.9C212.86 14.76 213.43 15.94 213.43 17.44C213.43 18.34 213.28 19.12 212.98 19.78C212.7 20.42 212.24 20.94 211.6 21.34C210.82 21.82 210.06 22.14 209.32 22.3L209.29 22.54ZM200.5 21.07C201.28 21.07 201.86 20.84 202.24 20.38C202.4 20.2 202.52 20 202.6 19.78C202.7 19.54 202.75 19.33 202.75 19.15C202.75 18.31 202.21 17.89 201.13 17.89H193.15L192.52 21.07H200.5ZM199.33 28.9C200.19 28.9 200.83 28.65 201.25 28.15C201.43 27.93 201.56 27.7 201.64 27.46C201.74 27.22 201.79 27 201.79 26.8C201.79 25.88 201.2 25.42 200.02 25.42H191.68L190.99 28.9H199.33ZM235.788 31.51H224.028L222.348 34H211.308L226.488 12.58H239.898L246.888 34H236.568L235.788 31.51ZM234.018 25.9L232.098 19.78H231.918L227.808 25.9H234.018ZM247.822 34L251.932 12.58H261.772L259.042 26.83H276.592L275.212 34H247.822ZM277.068 34L281.178 12.58H291.018L288.288 26.83H305.838L304.458 34H277.068Z" fill="white" fill-opacity="0.3"/>
</svg>
