<svg width="197" height="32" viewBox="0 0 197 32" fill="none" xmlns="http://www.w3.org/2000/svg">
    <g filter="url(#filter0_f_270_123)">
        <path d="M4.43 27L8.54 5.58H18.38L15.65 19.83H33.2L31.82 27H4.43ZM54.8938 26.85C52.4338 27.51 49.4538 27.84 45.9538 27.84C40.7738 27.84 36.9138 27.08 34.3738 25.56C31.8538 24.04 30.5938 21.71 30.5938 18.57C30.5938 16.67 30.9538 14.86 31.6738 13.14C32.4138 11.4 33.4538 9.94 34.7938 8.76C36.3338 7.4 38.3338 6.39 40.7938 5.73C43.2738 5.07 46.2638 4.74 49.7638 4.74C54.9438 4.74 58.7938 5.5 61.3138 7.02C63.8538 8.54 65.1238 10.87 65.1238 14.01C65.1238 15.89 64.7638 17.7 64.0438 19.44C63.3238 21.18 62.2938 22.64 60.9538 23.82C59.3938 25.18 57.3738 26.19 54.8938 26.85ZM52.9738 12.6C52.0938 11.92 50.6938 11.58 48.7738 11.58C46.2938 11.58 44.3838 12.23 43.0438 13.53C42.5238 14.05 42.1238 14.66 41.8438 15.36C41.5638 16.06 41.4238 16.75 41.4238 17.43C41.4238 18.47 41.8638 19.33 42.7438 20.01C43.6238 20.67 45.0238 21 46.9438 21C49.4638 21 51.3738 20.35 52.6738 19.05C53.1938 18.53 53.5938 17.92 53.8738 17.22C54.1538 16.52 54.2938 15.83 54.2938 15.15C54.2938 14.11 53.8538 13.26 52.9738 12.6ZM84.6765 13.65C84.5165 13.15 84.0765 12.68 83.3565 12.24C82.6565 11.8 81.5665 11.58 80.0865 11.58C77.6665 11.58 75.7965 12.24 74.4765 13.56C73.9365 14.08 73.5265 14.71 73.2465 15.45C72.9665 16.17 72.8265 16.9 72.8265 17.64C72.8265 18.84 73.3065 19.76 74.2665 20.4C75.2465 21.02 76.6665 21.33 78.5265 21.33C79.6865 21.33 80.7065 21.23 81.5865 21.03C82.4665 20.81 83.1565 20.57 83.6565 20.31C84.1765 20.03 84.4765 19.82 84.5565 19.68H79.4865L80.3565 15.24H96.0465L93.7665 27.03H87.3465L87.8265 24.63C86.6465 25.77 85.1365 26.59 83.2965 27.09C81.4565 27.59 79.4865 27.84 77.3865 27.84C72.2065 27.84 68.3465 27.08 65.8065 25.56C63.2665 24.04 61.9965 21.71 61.9965 18.57C61.9965 16.73 62.3565 14.94 63.0765 13.2C63.8165 11.46 64.8465 10 66.1665 8.82C67.7065 7.44 69.7165 6.42 72.1965 5.76C74.6765 5.08 77.6565 4.74 81.1365 4.74C86.3565 4.74 90.1965 5.42 92.6565 6.78C95.1165 8.12 96.3465 10.04 96.3465 12.54C96.3465 12.76 96.3265 13.13 96.2865 13.65H84.6765ZM124.082 26.85C121.622 27.51 118.642 27.84 115.142 27.84C109.962 27.84 106.102 27.08 103.562 25.56C101.042 24.04 99.7824 21.71 99.7824 18.57C99.7824 16.67 100.142 14.86 100.862 13.14C101.602 11.4 102.642 9.94 103.982 8.76C105.522 7.4 107.522 6.39 109.982 5.73C112.462 5.07 115.452 4.74 118.952 4.74C124.132 4.74 127.982 5.5 130.502 7.02C133.042 8.54 134.312 10.87 134.312 14.01C134.312 15.89 133.952 17.7 133.232 19.44C132.512 21.18 131.482 22.64 130.142 23.82C128.582 25.18 126.562 26.19 124.082 26.85ZM122.162 12.6C121.282 11.92 119.882 11.58 117.962 11.58C115.482 11.58 113.572 12.23 112.232 13.53C111.712 14.05 111.312 14.66 111.032 15.36C110.752 16.06 110.612 16.75 110.612 17.43C110.612 18.47 111.052 19.33 111.932 20.01C112.812 20.67 114.212 21 116.132 21C118.652 21 120.562 20.35 121.862 19.05C122.382 18.53 122.782 17.92 123.062 17.22C123.342 16.52 123.482 15.83 123.482 15.15C123.482 14.11 123.042 13.26 122.162 12.6ZM164.545 5.58L162.355 16.86C161.815 19.64 160.995 21.76 159.895 23.22C158.795 24.68 157.245 25.77 155.245 26.49C152.765 27.39 149.415 27.84 145.195 27.84C140.955 27.84 137.585 27.18 135.085 25.86C132.605 24.54 131.365 22.4 131.365 19.44C131.365 18.7 131.435 17.95 131.575 17.19L133.825 5.58H143.665L141.505 16.74C141.425 17.04 141.385 17.33 141.385 17.61C141.385 18.65 141.805 19.43 142.645 19.95C143.485 20.45 144.685 20.7 146.245 20.7C147.005 20.7 147.735 20.62 148.435 20.46C149.135 20.3 149.745 20.08 150.265 19.8C151.505 19.14 152.295 17.92 152.635 16.14L154.705 5.58H164.545ZM190.702 12.99H180.592L177.892 27H168.052L170.752 12.99H160.672L162.082 5.58H192.112L190.702 12.99Z" fill="#FFEBEB"/>
    </g>
    <defs>
        <filter id="filter0_f_270_123" x="0.429932" y="0.740234" width="195.682" height="31.0996" filterUnits="userSpaceOnUse" color-interpolation-filters="sRGB">
            <feFlood flood-opacity="0" result="BackgroundImageFix"/>
            <feBlend mode="normal" in="SourceGraphic" in2="BackgroundImageFix" result="shape"/>
            <feGaussianBlur stdDeviation="2" result="effect1_foregroundBlur_270_123"/>
        </filter>
    </defs>
</svg>
