<svg width="1554" height="333" viewBox="0 0 1554 333" fill="none" xmlns="http://www.w3.org/2000/svg">
    <path d="M80.5039 68.149L76.0489 90.82H43.9729L57.9319 19.342H89.4139L88.1269 25.678H88.7209C92.6149 23.038 96.5749 21.091 100.601 19.837C104.693 18.517 109.379 17.857 114.659 17.857C125.483 17.857 133.667 19.804 139.211 23.698C144.755 27.592 147.527 33.334 147.527 40.924C147.527 45.346 146.702 49.768 145.052 54.19C143.402 58.546 141.059 62.209 138.023 65.179C131.027 72.043 120.203 75.475 105.551 75.475C99.8749 75.475 95.0569 74.848 91.0969 73.594C87.2029 72.34 83.8699 70.525 81.0979 68.149H80.5039ZM101.096 36.766C94.6279 36.766 89.8429 38.251 86.7409 41.221C85.7509 42.211 84.9589 43.399 84.3649 44.785C83.7709 46.105 83.4739 47.458 83.4739 48.844C83.4739 53.992 88.0609 56.566 97.2349 56.566C103.703 56.566 108.323 55.081 111.095 52.111C112.085 51.121 112.844 49.9 113.372 48.448C113.966 46.93 114.263 45.577 114.263 44.389C114.263 41.881 113.207 40 111.095 38.746C109.049 37.426 105.716 36.766 101.096 36.766ZM157.729 19.342H189.805L179.311 73H147.235L157.729 19.342ZM160.996 0.927996H193.468L190.993 13.699H158.62L160.996 0.927996ZM283.65 73H245.139L236.13 60.328L222.963 73H182.076L216.627 44.29L196.035 19.342H232.269L240.585 31.024L252.564 19.342H291.174L260.088 45.775L283.65 73ZM313.551 52.309C313.419 55.213 314.409 57.391 316.521 58.843C318.633 60.295 322.131 61.021 327.015 61.021C330.183 61.021 333.252 60.592 336.222 59.734C337.278 59.404 338.202 58.942 338.994 58.348C339.852 57.688 340.446 57.094 340.776 56.566H375.327C374.601 59.998 373.05 62.968 370.674 65.476C368.298 67.984 364.602 70.063 359.586 71.713C351.732 74.221 340.314 75.475 325.332 75.475C309.822 75.475 298.569 73.462 291.573 69.436C284.643 65.41 281.178 59.437 281.178 51.517C281.178 46.699 282.069 42.178 283.851 37.954C285.633 33.664 288.207 30.1 291.573 27.262C295.731 23.83 301.275 21.223 308.205 19.441C315.201 17.659 323.913 16.768 334.341 16.768C349.653 16.768 360.807 18.814 367.803 22.906C374.865 26.998 378.396 33.037 378.396 41.023C378.396 44.785 377.769 48.547 376.515 52.309H313.551ZM319.392 34.885C318.072 36.073 317.115 37.294 316.521 38.548H345.924C345.792 36.106 344.67 34.291 342.558 33.103C340.446 31.849 337.146 31.222 332.658 31.222C326.52 31.222 322.098 32.443 319.392 34.885ZM392.038 1.324H424.114L410.254 73H378.178L392.038 1.324ZM457.17 26.371H457.764C464.958 20.695 473.802 17.857 484.296 17.857C496.638 17.857 504.096 20.728 506.67 26.47C514.326 20.728 523.731 17.857 534.885 17.857C542.541 17.857 548.481 19.309 552.705 22.213C556.995 25.117 559.14 29.374 559.14 34.984C559.14 36.37 558.975 37.987 558.645 39.835L552.21 73H520.233L525.084 48.349C525.216 47.293 525.282 46.567 525.282 46.171C525.282 42.277 522.708 40.33 517.56 40.33C514.458 40.33 511.686 41.221 509.244 43.003C507 44.521 505.548 46.963 504.888 50.329L500.433 73H468.456L473.307 48.349C473.439 47.293 473.505 46.567 473.505 46.171C473.505 42.277 470.931 40.33 465.783 40.33C462.483 40.33 459.744 41.188 457.566 42.904C455.19 44.62 453.705 47.095 453.111 50.329L448.656 73H416.679L427.074 19.342H458.556L457.17 26.371ZM631.69 72.802C624.826 74.584 616.279 75.475 606.049 75.475C590.737 75.475 579.649 73.462 572.785 69.436C565.987 65.344 562.588 59.338 562.588 51.418C562.588 46.666 563.446 42.178 565.162 37.954C566.944 33.664 569.518 30.1 572.884 27.262C577.042 23.83 582.553 21.223 589.417 19.441C596.281 17.659 604.828 16.768 615.058 16.768C630.37 16.768 641.458 18.814 648.322 22.906C655.186 26.932 658.618 32.905 658.618 40.825C658.618 45.577 657.727 50.098 655.945 54.388C654.163 58.612 651.589 62.143 648.223 64.981C644.131 68.413 638.62 71.02 631.69 72.802ZM622.384 37.954C620.338 36.568 617.071 35.875 612.583 35.875C606.643 35.875 602.254 37.294 599.416 40.132C598.294 41.254 597.403 42.574 596.743 44.092C596.083 45.61 595.753 47.062 595.753 48.448C595.753 51.088 596.743 53.068 598.723 54.388C600.769 55.708 604.036 56.368 608.524 56.368C614.398 56.368 618.82 54.949 621.79 52.111C622.912 50.923 623.803 49.57 624.463 48.052C625.123 46.534 625.453 45.115 625.453 43.795C625.453 41.221 624.43 39.274 622.384 37.954ZM652.98 70.327C655.158 70.327 656.907 69.898 658.227 69.04C659.283 68.248 659.943 67.093 660.207 65.575L669.216 19.342H701.292L690.897 72.604C690.105 76.63 689.082 79.864 687.828 82.306C686.574 84.814 684.858 86.761 682.68 88.147C680.106 89.797 676.674 90.919 672.384 91.513C668.094 92.173 662.187 92.503 654.663 92.503C651.363 92.503 648.261 92.404 645.357 92.206L648.624 70.228L652.98 70.327ZM672.483 0.927996H704.955L702.48 13.699H670.107L672.483 0.927996ZM707.612 19.342H739.688L729.194 73H697.118L707.612 19.342ZM710.879 0.927996H743.351L740.876 13.699H708.503L710.879 0.927996ZM773.44 56.269C774.43 60.097 778.522 62.011 785.716 62.011C791.458 62.011 795.154 61.351 796.804 60.031C797.728 59.305 798.19 58.48 798.19 57.556C798.19 56.764 797.695 56.17 796.705 55.774C795.715 55.378 793.966 55.048 791.458 54.784L764.53 51.715C757.072 50.923 751.528 49.537 747.898 47.557C744.268 45.511 742.453 42.244 742.453 37.756C742.453 34.192 743.212 31.057 744.73 28.351C746.314 25.645 748.624 23.467 751.66 21.817C755.422 19.837 760.339 18.517 766.411 17.857C772.549 17.131 780.634 16.768 790.666 16.768C800.368 16.768 808.453 17.23 814.921 18.154C821.389 19.078 826.405 20.761 829.969 23.203C833.599 25.579 835.414 28.945 835.414 33.301C835.414 34.027 835.381 34.588 835.315 34.984H799.675C799.279 33.334 797.959 32.146 795.715 31.42C793.471 30.628 790.633 30.232 787.201 30.232C782.449 30.232 779.215 30.793 777.499 31.915C776.641 32.509 776.212 33.202 776.212 33.994C776.212 34.786 776.74 35.38 777.796 35.776C778.852 36.106 780.766 36.403 783.538 36.667L812.941 39.439C820.003 40.099 825.184 41.419 828.484 43.399C831.85 45.379 833.533 48.679 833.533 53.299C833.533 57.193 832.774 60.592 831.256 63.496C829.738 66.4 827.428 68.71 824.326 70.426C820.564 72.406 815.383 73.726 808.783 74.386C802.249 75.112 793.207 75.475 781.657 75.475C771.625 75.475 763.375 75.013 756.907 74.089C750.505 73.231 745.555 71.581 742.057 69.139C738.559 66.697 736.81 63.232 736.81 58.744C736.81 57.688 736.843 56.863 736.909 56.269H773.44Z" fill="white" fill-opacity="0.3"/>
    <path d="M797.504 161.149L793.049 183.82H760.973L774.932 112.342H806.414L805.127 118.678H805.721C809.615 116.038 813.575 114.091 817.601 112.837C821.693 111.517 826.379 110.857 831.659 110.857C842.483 110.857 850.667 112.804 856.211 116.698C861.755 120.592 864.527 126.334 864.527 133.924C864.527 138.346 863.702 142.768 862.052 147.19C860.402 151.546 858.059 155.209 855.023 158.179C848.027 165.043 837.203 168.475 822.551 168.475C816.875 168.475 812.057 167.848 808.097 166.594C804.203 165.34 800.87 163.525 798.098 161.149H797.504ZM818.096 129.766C811.628 129.766 806.843 131.251 803.741 134.221C802.751 135.211 801.959 136.399 801.365 137.785C800.771 139.105 800.474 140.458 800.474 141.844C800.474 146.992 805.061 149.566 814.235 149.566C820.703 149.566 825.323 148.081 828.095 145.111C829.085 144.121 829.844 142.9 830.372 141.448C830.966 139.93 831.263 138.577 831.263 137.389C831.263 134.881 830.207 133 828.095 131.746C826.049 130.426 822.716 129.766 818.096 129.766ZM874.729 112.342H906.805L896.311 166H864.235L874.729 112.342ZM877.996 93.928H910.468L907.993 106.699H875.62L877.996 93.928ZM1000.65 166H962.139L953.13 153.328L939.963 166H899.076L933.627 137.29L913.035 112.342H949.269L957.585 124.024L969.564 112.342H1008.17L977.088 138.775L1000.65 166ZM1030.55 145.309C1030.42 148.213 1031.41 150.391 1033.52 151.843C1035.63 153.295 1039.13 154.021 1044.02 154.021C1047.18 154.021 1050.25 153.592 1053.22 152.734C1054.28 152.404 1055.2 151.942 1055.99 151.348C1056.85 150.688 1057.45 150.094 1057.78 149.566H1092.33C1091.6 152.998 1090.05 155.968 1087.67 158.476C1085.3 160.984 1081.6 163.063 1076.59 164.713C1068.73 167.221 1057.31 168.475 1042.33 168.475C1026.82 168.475 1015.57 166.462 1008.57 162.436C1001.64 158.41 998.178 152.437 998.178 144.517C998.178 139.699 999.069 135.178 1000.85 130.954C1002.63 126.664 1005.21 123.1 1008.57 120.262C1012.73 116.83 1018.28 114.223 1025.21 112.441C1032.2 110.659 1040.91 109.768 1051.34 109.768C1066.65 109.768 1077.81 111.814 1084.8 115.906C1091.87 119.998 1095.4 126.037 1095.4 134.023C1095.4 137.785 1094.77 141.547 1093.52 145.309H1030.55ZM1036.39 127.885C1035.07 129.073 1034.12 130.294 1033.52 131.548H1062.92C1062.79 129.106 1061.67 127.291 1059.56 126.103C1057.45 124.849 1054.15 124.222 1049.66 124.222C1043.52 124.222 1039.1 125.443 1036.39 127.885ZM1109.04 94.324H1141.11L1127.25 166H1095.18L1109.04 94.324ZM1174.17 119.371H1174.76C1181.96 113.695 1190.8 110.857 1201.3 110.857C1213.64 110.857 1221.1 113.728 1223.67 119.47C1231.33 113.728 1240.73 110.857 1251.89 110.857C1259.54 110.857 1265.48 112.309 1269.71 115.213C1274 118.117 1276.14 122.374 1276.14 127.984C1276.14 129.37 1275.98 130.987 1275.65 132.835L1269.21 166H1237.23L1242.08 141.349C1242.22 140.293 1242.28 139.567 1242.28 139.171C1242.28 135.277 1239.71 133.33 1234.56 133.33C1231.46 133.33 1228.69 134.221 1226.24 136.003C1224 137.521 1222.55 139.963 1221.89 143.329L1217.43 166H1185.46L1190.31 141.349C1190.44 140.293 1190.51 139.567 1190.51 139.171C1190.51 135.277 1187.93 133.33 1182.78 133.33C1179.48 133.33 1176.74 134.188 1174.57 135.904C1172.19 137.62 1170.71 140.095 1170.11 143.329L1165.66 166H1133.68L1144.07 112.342H1175.56L1174.17 119.371ZM1348.69 165.802C1341.83 167.584 1333.28 168.475 1323.05 168.475C1307.74 168.475 1296.65 166.462 1289.79 162.436C1282.99 158.344 1279.59 152.338 1279.59 144.418C1279.59 139.666 1280.45 135.178 1282.16 130.954C1283.94 126.664 1286.52 123.1 1289.88 120.262C1294.04 116.83 1299.55 114.223 1306.42 112.441C1313.28 110.659 1321.83 109.768 1332.06 109.768C1347.37 109.768 1358.46 111.814 1365.32 115.906C1372.19 119.932 1375.62 125.905 1375.62 133.825C1375.62 138.577 1374.73 143.098 1372.95 147.388C1371.16 151.612 1368.59 155.143 1365.22 157.981C1361.13 161.413 1355.62 164.02 1348.69 165.802ZM1339.38 130.954C1337.34 129.568 1334.07 128.875 1329.58 128.875C1323.64 128.875 1319.25 130.294 1316.42 133.132C1315.29 134.254 1314.4 135.574 1313.74 137.092C1313.08 138.61 1312.75 140.062 1312.75 141.448C1312.75 144.088 1313.74 146.068 1315.72 147.388C1317.77 148.708 1321.04 149.368 1325.52 149.368C1331.4 149.368 1335.82 147.949 1338.79 145.111C1339.91 143.923 1340.8 142.57 1341.46 141.052C1342.12 139.534 1342.45 138.115 1342.45 136.795C1342.45 134.221 1341.43 132.274 1339.38 130.954ZM1369.98 163.327C1372.16 163.327 1373.91 162.898 1375.23 162.04C1376.28 161.248 1376.94 160.093 1377.21 158.575L1386.22 112.342H1418.29L1407.9 165.604C1407.1 169.63 1406.08 172.864 1404.83 175.306C1403.57 177.814 1401.86 179.761 1399.68 181.147C1397.11 182.797 1393.67 183.919 1389.38 184.513C1385.09 185.173 1379.19 185.503 1371.66 185.503C1368.36 185.503 1365.26 185.404 1362.36 185.206L1365.62 163.228L1369.98 163.327ZM1389.48 93.928H1421.95L1419.48 106.699H1387.11L1389.48 93.928ZM1424.61 112.342H1456.69L1446.19 166H1414.12L1424.61 112.342ZM1427.88 93.928H1460.35L1457.88 106.699H1425.5L1427.88 93.928ZM1490.44 149.269C1491.43 153.097 1495.52 155.011 1502.72 155.011C1508.46 155.011 1512.15 154.351 1513.8 153.031C1514.73 152.305 1515.19 151.48 1515.19 150.556C1515.19 149.764 1514.69 149.17 1513.7 148.774C1512.71 148.378 1510.97 148.048 1508.46 147.784L1481.53 144.715C1474.07 143.923 1468.53 142.537 1464.9 140.557C1461.27 138.511 1459.45 135.244 1459.45 130.756C1459.45 127.192 1460.21 124.057 1461.73 121.351C1463.31 118.645 1465.62 116.467 1468.66 114.817C1472.42 112.837 1477.34 111.517 1483.41 110.857C1489.55 110.131 1497.63 109.768 1507.67 109.768C1517.37 109.768 1525.45 110.23 1531.92 111.154C1538.39 112.078 1543.4 113.761 1546.97 116.203C1550.6 118.579 1552.41 121.945 1552.41 126.301C1552.41 127.027 1552.38 127.588 1552.31 127.984H1516.67C1516.28 126.334 1514.96 125.146 1512.71 124.42C1510.47 123.628 1507.63 123.232 1504.2 123.232C1499.45 123.232 1496.21 123.793 1494.5 124.915C1493.64 125.509 1493.21 126.202 1493.21 126.994C1493.21 127.786 1493.74 128.38 1494.8 128.776C1495.85 129.106 1497.77 129.403 1500.54 129.667L1529.94 132.439C1537 133.099 1542.18 134.419 1545.48 136.399C1548.85 138.379 1550.53 141.679 1550.53 146.299C1550.53 150.193 1549.77 153.592 1548.26 156.496C1546.74 159.4 1544.43 161.71 1541.33 163.426C1537.56 165.406 1532.38 166.726 1525.78 167.386C1519.25 168.112 1510.21 168.475 1498.66 168.475C1488.62 168.475 1480.37 168.013 1473.91 167.089C1467.5 166.231 1462.55 164.581 1459.06 162.139C1455.56 159.697 1453.81 156.232 1453.81 151.744C1453.81 150.688 1453.84 149.863 1453.91 149.269H1490.44Z" fill="white" fill-opacity="0.5"/>
    <path d="M931.835 52.383L930.35 59.94H919.658L924.311 36.114H934.805L934.376 38.226H934.574C935.872 37.346 937.192 36.697 938.534 36.279C939.898 35.839 941.46 35.619 943.22 35.619C946.828 35.619 949.556 36.268 951.404 37.566C953.252 38.864 954.176 40.778 954.176 43.308C954.176 44.782 953.901 46.256 953.351 47.73C952.801 49.182 952.02 50.403 951.008 51.393C948.676 53.681 945.068 54.825 940.184 54.825C938.292 54.825 936.686 54.616 935.366 54.198C934.068 53.78 932.957 53.175 932.033 52.383H931.835ZM938.699 41.922C936.543 41.922 934.948 42.417 933.914 43.407C933.584 43.737 933.32 44.133 933.122 44.595C932.924 45.035 932.825 45.486 932.825 45.948C932.825 47.664 934.354 48.522 937.412 48.522C939.568 48.522 941.108 48.027 942.032 47.037C942.362 46.707 942.615 46.3 942.791 45.816C942.989 45.31 943.088 44.859 943.088 44.463C943.088 43.627 942.736 43 942.032 42.582C941.35 42.142 940.239 41.922 938.699 41.922ZM957.576 36.114H968.268L964.77 54H954.078L957.576 36.114ZM958.665 29.976H969.489L968.664 34.233H957.873L958.665 29.976ZM999.55 54H986.713L983.71 49.776L979.321 54H965.692L977.209 44.43L970.345 36.114H982.423L985.195 40.008L989.188 36.114H1002.06L991.696 44.925L999.55 54ZM1009.52 47.103C1009.47 48.071 1009.8 48.797 1010.51 49.281C1011.21 49.765 1012.38 50.007 1014.01 50.007C1015.06 50.007 1016.08 49.864 1017.07 49.578C1017.43 49.468 1017.73 49.314 1018 49.116C1018.28 48.896 1018.48 48.698 1018.59 48.522H1030.11C1029.87 49.666 1029.35 50.656 1028.56 51.492C1027.77 52.328 1026.53 53.021 1024.86 53.571C1022.24 54.407 1018.44 54.825 1013.44 54.825C1008.27 54.825 1004.52 54.154 1002.19 52.812C999.881 51.47 998.726 49.479 998.726 46.839C998.726 45.233 999.023 43.726 999.617 42.318C1000.21 40.888 1001.07 39.7 1002.19 38.754C1003.58 37.61 1005.43 36.741 1007.74 36.147C1010.07 35.553 1012.97 35.256 1016.45 35.256C1021.55 35.256 1025.27 35.938 1027.6 37.302C1029.96 38.666 1031.13 40.679 1031.13 43.341C1031.13 44.595 1030.92 45.849 1030.51 47.103H1009.52ZM1011.46 41.295C1011.02 41.691 1010.71 42.098 1010.51 42.516H1020.31C1020.26 41.702 1019.89 41.097 1019.19 40.701C1018.48 40.283 1017.38 40.074 1015.89 40.074C1013.84 40.074 1012.37 40.481 1011.46 41.295ZM1035.68 30.108H1046.37L1041.75 54H1031.06L1035.68 30.108ZM1057.39 38.457H1057.59C1059.99 36.565 1062.93 35.619 1066.43 35.619C1070.55 35.619 1073.03 36.576 1073.89 38.49C1076.44 36.576 1079.58 35.619 1083.3 35.619C1085.85 35.619 1087.83 36.103 1089.24 37.071C1090.67 38.039 1091.38 39.458 1091.38 41.328C1091.38 41.79 1091.33 42.329 1091.22 42.945L1089.07 54H1078.41L1080.03 45.783C1080.07 45.431 1080.09 45.189 1080.09 45.057C1080.09 43.759 1079.24 43.11 1077.52 43.11C1076.49 43.11 1075.56 43.407 1074.75 44.001C1074 44.507 1073.52 45.321 1073.3 46.443L1071.81 54H1061.15L1062.77 45.783C1062.81 45.431 1062.84 45.189 1062.84 45.057C1062.84 43.759 1061.98 43.11 1060.26 43.11C1059.16 43.11 1058.25 43.396 1057.52 43.968C1056.73 44.54 1056.24 45.365 1056.04 46.443L1054.55 54H1043.89L1047.36 36.114H1057.85L1057.39 38.457ZM1115.56 53.934C1113.28 54.528 1110.43 54.825 1107.02 54.825C1101.91 54.825 1098.22 54.154 1095.93 52.812C1093.66 51.448 1092.53 49.446 1092.53 46.806C1092.53 45.222 1092.82 43.726 1093.39 42.318C1093.98 40.888 1094.84 39.7 1095.96 38.754C1097.35 37.61 1099.18 36.741 1101.47 36.147C1103.76 35.553 1106.61 35.256 1110.02 35.256C1115.12 35.256 1118.82 35.938 1121.11 37.302C1123.4 38.644 1124.54 40.635 1124.54 43.275C1124.54 44.859 1124.24 46.366 1123.65 47.796C1123.05 49.204 1122.2 50.381 1121.07 51.327C1119.71 52.471 1117.87 53.34 1115.56 53.934ZM1112.46 42.318C1111.78 41.856 1110.69 41.625 1109.19 41.625C1107.21 41.625 1105.75 42.098 1104.81 43.044C1104.43 43.418 1104.13 43.858 1103.91 44.364C1103.69 44.87 1103.58 45.354 1103.58 45.816C1103.58 46.696 1103.91 47.356 1104.57 47.796C1105.26 48.236 1106.35 48.456 1107.84 48.456C1109.8 48.456 1111.27 47.983 1112.26 47.037C1112.64 46.641 1112.93 46.19 1113.15 45.684C1113.37 45.178 1113.48 44.705 1113.48 44.265C1113.48 43.407 1113.14 42.758 1112.46 42.318ZM1122.66 53.109C1123.39 53.109 1123.97 52.966 1124.41 52.68C1124.76 52.416 1124.98 52.031 1125.07 51.525L1128.07 36.114H1138.76L1135.3 53.868C1135.03 55.21 1134.69 56.288 1134.28 57.102C1133.86 57.938 1133.29 58.587 1132.56 59.049C1131.7 59.599 1130.56 59.973 1129.13 60.171C1127.7 60.391 1125.73 60.501 1123.22 60.501C1122.12 60.501 1121.09 60.468 1120.12 60.402L1121.21 53.076L1122.66 53.109ZM1129.16 29.976H1139.98L1139.16 34.233H1128.37L1129.16 29.976ZM1140.87 36.114H1151.56L1148.06 54H1137.37L1140.87 36.114ZM1141.96 29.976H1152.78L1151.96 34.233H1141.17L1141.96 29.976ZM1162.81 48.423C1163.14 49.699 1164.51 50.337 1166.91 50.337C1168.82 50.337 1170.05 50.117 1170.6 49.677C1170.91 49.435 1171.06 49.16 1171.06 48.852C1171.06 48.588 1170.9 48.39 1170.57 48.258C1170.24 48.126 1169.66 48.016 1168.82 47.928L1159.84 46.905C1157.36 46.641 1155.51 46.179 1154.3 45.519C1153.09 44.837 1152.48 43.748 1152.48 42.252C1152.48 41.064 1152.74 40.019 1153.24 39.117C1153.77 38.215 1154.54 37.489 1155.55 36.939C1156.81 36.279 1158.45 35.839 1160.47 35.619C1162.52 35.377 1165.21 35.256 1168.56 35.256C1171.79 35.256 1174.48 35.41 1176.64 35.718C1178.8 36.026 1180.47 36.587 1181.66 37.401C1182.87 38.193 1183.47 39.315 1183.47 40.767C1183.47 41.009 1183.46 41.196 1183.44 41.328H1171.56C1171.43 40.778 1170.99 40.382 1170.24 40.14C1169.49 39.876 1168.54 39.744 1167.4 39.744C1165.82 39.744 1164.74 39.931 1164.17 40.305C1163.88 40.503 1163.74 40.734 1163.74 40.998C1163.74 41.262 1163.91 41.46 1164.27 41.592C1164.62 41.702 1165.26 41.801 1166.18 41.889L1175.98 42.813C1178.33 43.033 1180.06 43.473 1181.16 44.133C1182.28 44.793 1182.84 45.893 1182.84 47.433C1182.84 48.731 1182.59 49.864 1182.09 50.832C1181.58 51.8 1180.81 52.57 1179.78 53.142C1178.52 53.802 1176.79 54.242 1174.59 54.462C1172.42 54.704 1169.4 54.825 1165.55 54.825C1162.21 54.825 1159.46 54.671 1157.3 54.363C1155.17 54.077 1153.52 53.527 1152.35 52.713C1151.19 51.899 1150.6 50.744 1150.6 49.248C1150.6 48.896 1150.61 48.621 1150.64 48.423H1162.81Z" fill="white" fill-opacity="0.7"/>
    <path d="M16.0623 164.942L14.1723 174.56H0.564251L6.48625 144.236H19.8423L19.2963 146.924H19.5483C21.2003 145.804 22.8803 144.978 24.5883 144.446C26.3243 143.886 28.3123 143.606 30.5523 143.606C35.1443 143.606 38.6163 144.432 40.9683 146.084C43.3203 147.736 44.4963 150.172 44.4963 153.392C44.4963 155.268 44.1463 157.144 43.4463 159.02C42.7463 160.868 41.7523 162.422 40.4643 163.682C37.4963 166.594 32.9043 168.05 26.6883 168.05C24.2803 168.05 22.2363 167.784 20.5563 167.252C18.9043 166.72 17.4903 165.95 16.3143 164.942H16.0623ZM24.7983 151.628C22.0543 151.628 20.0243 152.258 18.7083 153.518C18.2883 153.938 17.9523 154.442 17.7003 155.03C17.4483 155.59 17.3223 156.164 17.3223 156.752C17.3223 158.936 19.2683 160.028 23.1603 160.028C25.9043 160.028 27.8643 159.398 29.0403 158.138C29.4603 157.718 29.7823 157.2 30.0063 156.584C30.2583 155.94 30.3843 155.366 30.3843 154.862C30.3843 153.798 29.9363 153 29.0403 152.468C28.1723 151.908 26.7583 151.628 24.7983 151.628ZM48.8242 144.236H62.4322L57.9802 167H44.3722L48.8242 144.236ZM50.2102 136.424H63.9862L62.9362 141.842H49.2022L50.2102 136.424ZM102.245 167H85.9073L82.0853 161.624L76.4993 167H59.1533L73.8113 154.82L65.0753 144.236H80.4473L83.9753 149.192L89.0573 144.236H105.437L92.2493 155.45L102.245 167ZM114.931 158.222C114.875 159.454 115.295 160.378 116.191 160.994C117.087 161.61 118.571 161.918 120.643 161.918C121.987 161.918 123.289 161.736 124.549 161.372C124.997 161.232 125.389 161.036 125.725 160.784C126.089 160.504 126.341 160.252 126.481 160.028H141.139C140.831 161.484 140.173 162.744 139.165 163.808C138.157 164.872 136.589 165.754 134.461 166.454C131.129 167.518 126.285 168.05 119.929 168.05C113.349 168.05 108.575 167.196 105.607 165.488C102.667 163.78 101.197 161.246 101.197 157.886C101.197 155.842 101.575 153.924 102.331 152.132C103.087 150.312 104.179 148.8 105.607 147.596C107.371 146.14 109.723 145.034 112.663 144.278C115.631 143.522 119.327 143.144 123.751 143.144C130.247 143.144 134.979 144.012 137.947 145.748C140.943 147.484 142.441 150.046 142.441 153.434C142.441 155.03 142.175 156.626 141.643 158.222H114.931ZM117.409 150.83C116.849 151.334 116.443 151.852 116.191 152.384H128.665C128.609 151.348 128.133 150.578 127.237 150.074C126.341 149.542 124.941 149.276 123.037 149.276C120.433 149.276 118.557 149.794 117.409 150.83ZM148.228 136.592H161.836L155.956 167H142.348L148.228 136.592ZM175.86 147.218H176.112C179.164 144.81 182.916 143.606 187.368 143.606C192.604 143.606 195.768 144.824 196.86 147.26C200.108 144.824 204.098 143.606 208.83 143.606C212.078 143.606 214.598 144.222 216.39 145.454C218.21 146.686 219.12 148.492 219.12 150.872C219.12 151.46 219.05 152.146 218.91 152.93L216.18 167H202.614L204.672 156.542C204.728 156.094 204.756 155.786 204.756 155.618C204.756 153.966 203.664 153.14 201.48 153.14C200.164 153.14 198.988 153.518 197.952 154.274C197 154.918 196.384 155.954 196.104 157.382L194.214 167H180.648L182.706 156.542C182.762 156.094 182.79 155.786 182.79 155.618C182.79 153.966 181.698 153.14 179.514 153.14C178.114 153.14 176.952 153.504 176.028 154.232C175.02 154.96 174.39 156.01 174.138 157.382L172.248 167H158.682L163.092 144.236H176.448L175.86 147.218ZM249.899 166.916C246.987 167.672 243.361 168.05 239.021 168.05C232.525 168.05 227.821 167.196 224.909 165.488C222.025 163.752 220.583 161.204 220.583 157.844C220.583 155.828 220.947 153.924 221.675 152.132C222.431 150.312 223.523 148.8 224.951 147.596C226.715 146.14 229.053 145.034 231.965 144.278C234.877 143.522 238.503 143.144 242.843 143.144C249.339 143.144 254.043 144.012 256.955 145.748C259.867 147.456 261.323 149.99 261.323 153.35C261.323 155.366 260.945 157.284 260.189 159.104C259.433 160.896 258.341 162.394 256.913 163.598C255.177 165.054 252.839 166.16 249.899 166.916ZM245.951 152.132C245.083 151.544 243.697 151.25 241.793 151.25C239.273 151.25 237.411 151.852 236.207 153.056C235.731 153.532 235.353 154.092 235.073 154.736C234.793 155.38 234.653 155.996 234.653 156.584C234.653 157.704 235.073 158.544 235.913 159.104C236.781 159.664 238.167 159.944 240.071 159.944C242.563 159.944 244.439 159.342 245.699 158.138C246.175 157.634 246.553 157.06 246.833 156.416C247.113 155.772 247.253 155.17 247.253 154.61C247.253 153.518 246.819 152.692 245.951 152.132ZM258.931 165.866C259.855 165.866 260.597 165.684 261.157 165.32C261.605 164.984 261.885 164.494 261.997 163.85L265.819 144.236H279.427L275.017 166.832C274.681 168.54 274.247 169.912 273.715 170.948C273.183 172.012 272.455 172.838 271.531 173.426C270.439 174.126 268.983 174.602 267.163 174.854C265.343 175.134 262.837 175.274 259.645 175.274C258.245 175.274 256.929 175.232 255.697 175.148L257.083 165.824L258.931 165.866ZM267.205 136.424H280.981L279.931 141.842H266.197L267.205 136.424ZM282.108 144.236H295.716L291.264 167H277.656L282.108 144.236ZM283.494 136.424H297.27L296.22 141.842H282.486L283.494 136.424ZM310.035 159.902C310.455 161.526 312.191 162.338 315.243 162.338C317.679 162.338 319.247 162.058 319.947 161.498C320.339 161.19 320.535 160.84 320.535 160.448C320.535 160.112 320.325 159.86 319.905 159.692C319.485 159.524 318.743 159.384 317.679 159.272L306.255 157.97C303.091 157.634 300.739 157.046 299.199 156.206C297.659 155.338 296.889 153.952 296.889 152.048C296.889 150.536 297.211 149.206 297.855 148.058C298.527 146.91 299.507 145.986 300.795 145.286C302.391 144.446 304.477 143.886 307.053 143.606C309.657 143.298 313.087 143.144 317.343 143.144C321.459 143.144 324.889 143.34 327.633 143.732C330.377 144.124 332.505 144.838 334.017 145.874C335.557 146.882 336.327 148.31 336.327 150.158C336.327 150.466 336.313 150.704 336.285 150.872H321.165C320.997 150.172 320.437 149.668 319.485 149.36C318.533 149.024 317.329 148.856 315.873 148.856C313.857 148.856 312.485 149.094 311.757 149.57C311.393 149.822 311.211 150.116 311.211 150.452C311.211 150.788 311.435 151.04 311.883 151.208C312.331 151.348 313.143 151.474 314.319 151.586L326.793 152.762C329.789 153.042 331.987 153.602 333.387 154.442C334.815 155.282 335.529 156.682 335.529 158.642C335.529 160.294 335.207 161.736 334.563 162.968C333.919 164.2 332.939 165.18 331.623 165.908C330.027 166.748 327.829 167.308 325.029 167.588C322.257 167.896 318.421 168.05 313.521 168.05C309.265 168.05 305.765 167.854 303.021 167.462C300.305 167.098 298.205 166.398 296.721 165.362C295.237 164.326 294.495 162.856 294.495 160.952C294.495 160.504 294.509 160.154 294.537 159.902H310.035Z" fill="white" fill-opacity="0.45"/>
    <path d="M207.035 303.12L201.635 330.6H162.755L179.675 243.96H217.835L216.275 251.64H216.995C221.715 248.44 226.515 246.08 231.395 244.56C236.355 242.96 242.035 242.16 248.435 242.16C261.555 242.16 271.475 244.52 278.195 249.24C284.915 253.96 288.275 260.92 288.275 270.12C288.275 275.48 287.275 280.84 285.275 286.2C283.275 291.48 280.435 295.92 276.755 299.52C268.275 307.84 255.155 312 237.395 312C230.515 312 224.675 311.24 219.875 309.72C215.155 308.2 211.115 306 207.755 303.12H207.035ZM231.995 265.08C224.155 265.08 218.355 266.88 214.595 270.48C213.395 271.68 212.435 273.12 211.715 274.8C210.995 276.4 210.635 278.04 210.635 279.72C210.635 285.96 216.195 289.08 227.315 289.08C235.155 289.08 240.755 287.28 244.115 283.68C245.315 282.48 246.235 281 246.875 279.24C247.595 277.4 247.955 275.76 247.955 274.32C247.955 271.28 246.675 269 244.115 267.48C241.635 265.88 237.595 265.08 231.995 265.08ZM300.641 243.96H339.521L326.801 309H287.921L300.641 243.96ZM304.601 221.64H343.961L340.961 237.12H301.721L304.601 221.64ZM453.272 309H406.592L395.672 293.64L379.712 309H330.152L372.032 274.2L347.072 243.96H390.992L401.072 258.12L415.592 243.96H462.392L424.712 276L453.272 309ZM489.517 283.92C489.357 287.44 490.557 290.08 493.117 291.84C495.677 293.6 499.917 294.48 505.837 294.48C509.677 294.48 513.397 293.96 516.997 292.92C518.277 292.52 519.397 291.96 520.357 291.24C521.397 290.44 522.117 289.72 522.517 289.08H564.397C563.517 293.24 561.637 296.84 558.757 299.88C555.877 302.92 551.397 305.44 545.317 307.44C535.797 310.48 521.957 312 503.797 312C484.997 312 471.357 309.56 462.877 304.68C454.477 299.8 450.277 292.56 450.277 282.96C450.277 277.12 451.357 271.64 453.517 266.52C455.677 261.32 458.797 257 462.877 253.56C467.917 249.4 474.637 246.24 483.037 244.08C491.517 241.92 502.077 240.84 514.717 240.84C533.277 240.84 546.797 243.32 555.277 248.28C563.837 253.24 568.117 260.56 568.117 270.24C568.117 274.8 567.357 279.36 565.837 283.92H489.517ZM496.597 262.8C494.997 264.24 493.837 265.72 493.117 267.24H528.757C528.597 264.28 527.237 262.08 524.677 260.64C522.117 259.12 518.117 258.36 512.677 258.36C505.237 258.36 499.877 259.84 496.597 262.8ZM584.652 222.12H623.532L606.732 309H567.852L584.652 222.12ZM663.6 252.48H664.32C673.04 245.6 683.76 242.16 696.48 242.16C711.44 242.16 720.48 245.64 723.6 252.6C732.88 245.64 744.28 242.16 757.8 242.16C767.08 242.16 774.28 243.92 779.4 247.44C784.6 250.96 787.2 256.12 787.2 262.92C787.2 264.6 787 266.56 786.6 268.8L778.8 309H740.04L745.92 279.12C746.08 277.84 746.16 276.96 746.16 276.48C746.16 271.76 743.04 269.4 736.8 269.4C733.04 269.4 729.68 270.48 726.72 272.64C724 274.48 722.24 277.44 721.44 281.52L716.04 309H677.28L683.16 279.12C683.32 277.84 683.4 276.96 683.4 276.48C683.4 271.76 680.28 269.4 674.04 269.4C670.04 269.4 666.72 270.44 664.08 272.52C661.2 274.6 659.4 277.6 658.68 281.52L653.28 309H614.52L627.12 243.96H665.28L663.6 252.48ZM875.14 308.76C866.82 310.92 856.46 312 844.06 312C825.5 312 812.06 309.56 803.74 304.68C795.5 299.72 791.38 292.44 791.38 282.84C791.38 277.08 792.42 271.64 794.5 266.52C796.66 261.32 799.78 257 803.86 253.56C808.9 249.4 815.58 246.24 823.9 244.08C832.22 241.92 842.58 240.84 854.98 240.84C873.54 240.84 886.98 243.32 895.3 248.28C903.62 253.16 907.78 260.4 907.78 270C907.78 275.76 906.7 281.24 904.54 286.44C902.38 291.56 899.26 295.84 895.18 299.28C890.22 303.44 883.54 306.6 875.14 308.76ZM863.86 266.52C861.38 264.84 857.42 264 851.98 264C844.78 264 839.46 265.72 836.02 269.16C834.66 270.52 833.58 272.12 832.78 273.96C831.98 275.8 831.58 277.56 831.58 279.24C831.58 282.44 832.78 284.84 835.18 286.44C837.66 288.04 841.62 288.84 847.06 288.84C854.18 288.84 859.54 287.12 863.14 283.68C864.5 282.24 865.58 280.6 866.38 278.76C867.18 276.92 867.58 275.2 867.58 273.6C867.58 270.48 866.34 268.12 863.86 266.52ZM900.945 305.76C903.585 305.76 905.705 305.24 907.305 304.2C908.585 303.24 909.385 301.84 909.705 300L920.625 243.96H959.505L946.905 308.52C945.945 313.4 944.705 317.32 943.185 320.28C941.665 323.32 939.585 325.68 936.945 327.36C933.825 329.36 929.665 330.72 924.465 331.44C919.265 332.24 912.105 332.64 902.985 332.64C898.985 332.64 895.225 332.52 891.705 332.28L895.665 305.64L900.945 305.76ZM924.585 221.64H963.945L960.945 237.12H921.705L924.585 221.64ZM967.166 243.96H1006.05L993.326 309H954.446L967.166 243.96ZM971.126 221.64H1010.49L1007.49 237.12H968.246L971.126 221.64ZM1046.96 288.72C1048.16 293.36 1053.12 295.68 1061.84 295.68C1068.8 295.68 1073.28 294.88 1075.28 293.28C1076.4 292.4 1076.96 291.4 1076.96 290.28C1076.96 289.32 1076.36 288.6 1075.16 288.12C1073.96 287.64 1071.84 287.24 1068.8 286.92L1036.16 283.2C1027.12 282.24 1020.4 280.56 1016 278.16C1011.6 275.68 1009.4 271.72 1009.4 266.28C1009.4 261.96 1010.32 258.16 1012.16 254.88C1014.08 251.6 1016.88 248.96 1020.56 246.96C1025.12 244.56 1031.08 242.96 1038.44 242.16C1045.88 241.28 1055.68 240.84 1067.84 240.84C1079.6 240.84 1089.4 241.4 1097.24 242.52C1105.08 243.64 1111.16 245.68 1115.48 248.64C1119.88 251.52 1122.08 255.6 1122.08 260.88C1122.08 261.76 1122.04 262.44 1121.96 262.92H1078.76C1078.28 260.92 1076.68 259.48 1073.96 258.6C1071.24 257.64 1067.8 257.16 1063.64 257.16C1057.88 257.16 1053.96 257.84 1051.88 259.2C1050.84 259.92 1050.32 260.76 1050.32 261.72C1050.32 262.68 1050.96 263.4 1052.24 263.88C1053.52 264.28 1055.84 264.64 1059.2 264.96L1094.84 268.32C1103.4 269.12 1109.68 270.72 1113.68 273.12C1117.76 275.52 1119.8 279.52 1119.8 285.12C1119.8 289.84 1118.88 293.96 1117.04 297.48C1115.2 301 1112.4 303.8 1108.64 305.88C1104.08 308.28 1097.8 309.88 1089.8 310.68C1081.88 311.56 1070.92 312 1056.92 312C1044.76 312 1034.76 311.44 1026.92 310.32C1019.16 309.28 1013.16 307.28 1008.92 304.32C1004.68 301.36 1002.56 297.16 1002.56 291.72C1002.56 290.44 1002.6 289.44 1002.68 288.72H1046.96Z" fill="white" fill-opacity="0.6"/>
</svg>
