<svg width="27" height="394" viewBox="0 0 27 394" fill="none" xmlns="http://www.w3.org/2000/svg">
    <path d="M15.96 379.86C15.96 378.4 15.68 377.26 15.12 376.44C14.78 375.96 14.43 375.65 14.07 375.51L14.07 364.68C15.21 364.98 16.22 365.42 17.1 366C17.98 366.58 18.73 367.34 19.35 368.28C20.15 369.52 20.75 371.14 21.15 373.14C21.55 375.14 21.75 377.63 21.75 380.61C21.75 385.23 21.14 388.58 19.92 390.66C18.68 392.74 16.86 393.78 14.46 393.78C13.02 393.78 11.65 393.51 10.35 392.97C9.05 392.43 7.97 391.65 7.11 390.63C6.07 389.37 5.29 387.7 4.77 385.62C4.23 383.54 3.96 380.95 3.96 377.85C3.96 374.25 4.28 371.44 4.92 369.42C5.54 367.4 6.4 366.03 7.5 365.31C8.6 364.57 9.94 364.24 11.52 364.32L11.52 374.94C10.32 375.36 9.72 376.59 9.72 378.63C9.72 380.39 10.16 381.71 11.04 382.59C11.38 382.95 11.78 383.23 12.24 383.43C12.7 383.63 13.15 383.73 13.59 383.73C14.37 383.73 14.96 383.43 15.36 382.83C15.76 382.21 15.96 381.22 15.96 379.86ZM4.74 351.696L7.17 352.176L7.17 351.996C6.17 350.656 5.44 349.276 4.98 347.856C4.52 346.416 4.29 344.606 4.29 342.426C4.29 341.126 4.33 340.256 4.41 339.816L12.99 341.466C12.77 342.566 12.66 343.866 12.66 345.366C12.66 348.106 13.16 350.236 14.16 351.756C15 352.976 16.13 353.736 17.55 354.036L21 354.696L21 364.386L4.74 361.236L4.74 351.696ZM14.73 330.225C15.61 330.265 16.27 329.965 16.71 329.325C17.15 328.685 17.37 327.625 17.37 326.145C17.37 325.185 17.24 324.255 16.98 323.355C16.88 323.035 16.74 322.755 16.56 322.515C16.36 322.255 16.18 322.075 16.02 321.975L16.02 311.505C17.06 311.725 17.96 312.195 18.72 312.915C19.48 313.635 20.11 314.755 20.61 316.275C21.37 318.655 21.75 322.115 21.75 326.655C21.75 331.355 21.14 334.765 19.92 336.885C18.7 338.985 16.89 340.035 14.49 340.035C13.03 340.035 11.66 339.765 10.38 339.225C9.08 338.685 8 337.905 7.14 336.885C6.1 335.625 5.31 333.945 4.77 331.845C4.23 329.725 3.96 327.085 3.96 323.925C3.96 319.285 4.58 315.905 5.82 313.785C7.06 311.645 8.89 310.575 11.31 310.575C12.45 310.575 13.59 310.765 14.73 311.145L14.73 330.225ZM9.45 328.455C9.81 328.855 10.18 329.145 10.56 329.325L10.56 320.415C9.82 320.455 9.27 320.795 8.91 321.435C8.53 322.075 8.34 323.075 8.34 324.435C8.34 326.295 8.71 327.635 9.45 328.455ZM18.42 282.087C19.28 282.267 19.89 282.357 20.25 282.357C20.45 282.357 20.64 282.327 20.82 282.267L21 282.297L21 291.837C20.88 291.897 20.71 291.927 20.49 291.927C20.35 291.927 19.98 291.887 19.38 291.807L18.84 291.717C19.74 292.717 20.45 294.037 20.97 295.677C21.49 297.317 21.75 299.207 21.75 301.347C21.75 303.847 21.35 305.877 20.55 307.437C19.73 308.977 18.42 309.747 16.62 309.747C14.62 309.747 13.21 309.127 12.39 307.887C11.55 306.647 11.06 304.937 10.92 302.757L10.29 292.347C10.25 291.687 10.13 291.187 9.93 290.847C9.73 290.507 9.47 290.337 9.15 290.337C8.83 290.337 8.6 290.557 8.46 290.997C8.3 291.437 8.22 292.127 8.22 293.067C8.22 295.067 8.71 296.387 9.69 297.027L9.69 307.287C7.83 306.967 6.44 305.947 5.52 304.227C4.92 303.067 4.51 301.577 4.29 299.757C4.07 297.917 3.96 295.517 3.96 292.557C3.96 289.797 4.09 287.537 4.35 285.777C4.59 284.017 5.04 282.667 5.7 281.727C6.36 280.787 7.29 280.317 8.49 280.317C8.83 280.317 9.18 280.347 9.54 280.407L18.42 282.087ZM13.56 290.847C13.74 291.167 13.87 291.697 13.95 292.437L14.58 297.387C14.66 298.067 14.83 298.617 15.09 299.037C15.35 299.457 15.71 299.667 16.17 299.667C16.63 299.667 16.96 299.477 17.16 299.097C17.34 298.717 17.43 298.127 17.43 297.327C17.43 295.667 17.15 294.227 16.59 293.007C16.01 291.767 15.14 291.067 13.98 290.907L13.56 290.847ZM14.4 265.451C14.4 264.271 14.37 263.271 14.31 262.451L21 263.771C21.06 264.311 21.12 265.101 21.18 266.141C21.24 267.181 21.27 268.111 21.27 268.931C21.27 271.031 21.12 272.711 20.82 273.971C20.52 275.211 20.04 276.111 19.38 276.671C18.72 277.231 17.85 277.511 16.77 277.511C16.25 277.511 15.61 277.431 14.85 277.271L9.48 276.221L9.48 279.341L4.74 278.411L4.74 275.291L0.42 274.451L0.42 264.731L4.74 265.571L4.74 260.561L9.48 261.491L9.48 266.501L13.2 267.221C13.28 267.241 13.4 267.251 13.56 267.251C13.88 267.251 14.1 267.121 14.22 266.861C14.34 266.581 14.4 266.111 14.4 265.451ZM14.73 251.22C15.61 251.26 16.27 250.96 16.71 250.32C17.15 249.68 17.37 248.62 17.37 247.14C17.37 246.18 17.24 245.25 16.98 244.35C16.88 244.03 16.74 243.75 16.56 243.51C16.36 243.25 16.18 243.07 16.02 242.97L16.02 232.5C17.06 232.72 17.96 233.19 18.72 233.91C19.48 234.63 20.11 235.75 20.61 237.27C21.37 239.65 21.75 243.11 21.75 247.65C21.75 252.35 21.14 255.76 19.92 257.88C18.7 259.98 16.89 261.03 14.49 261.03C13.03 261.03 11.66 260.76 10.38 260.22C9.08 259.68 8 258.9 7.14 257.88C6.1 256.62 5.31 254.94 4.77 252.84C4.23 250.72 3.96 248.08 3.96 244.92C3.96 240.28 4.58 236.9 5.82 234.78C7.06 232.64 8.89 231.57 11.31 231.57C12.45 231.57 13.59 231.76 14.73 232.14L14.73 251.22ZM9.45 249.45C9.81 249.85 10.18 250.14 10.56 250.32L10.56 241.41C9.82 241.45 9.27 241.79 8.91 242.43C8.53 243.07 8.34 244.07 8.34 245.43C8.34 247.29 8.71 248.63 9.45 249.45ZM20.01 200.899C21.57 202.139 22.79 203.239 23.67 204.199C24.57 205.139 25.25 206.079 25.71 207.019C26.15 207.919 26.45 208.899 26.61 209.959C26.77 211.019 26.85 212.359 26.85 213.979L26.85 220.669L20.19 219.349L20.19 216.109C20.19 215.229 20.08 214.539 19.86 214.039C19.66 213.579 19.42 213.239 19.14 213.019L18.81 212.749L4.74 218.749L4.74 208.099L12.42 205.519L12.42 205.309L4.74 200.179L4.74 188.959L20.01 200.899ZM20.94 170.635C21.48 172.715 21.75 175.305 21.75 178.405C21.75 183.045 21.14 186.405 19.92 188.485C18.68 190.545 16.86 191.575 14.46 191.575C13.02 191.575 11.66 191.315 10.38 190.795C9.08 190.255 8 189.475 7.14 188.455C6.1 187.195 5.31 185.525 4.77 183.445C4.23 181.365 3.96 178.775 3.96 175.675C3.96 171.035 4.58 167.675 5.82 165.595C7.04 163.515 8.85 162.475 11.25 162.475C12.69 162.475 14.06 162.745 15.36 163.285C16.64 163.825 17.71 164.605 18.57 165.625C19.61 166.865 20.4 168.535 20.94 170.635ZM10.38 173.455C9.96 174.075 9.75 175.065 9.75 176.425C9.75 178.225 10.18 179.555 11.04 180.415C11.38 180.755 11.78 181.025 12.24 181.225C12.7 181.425 13.14 181.525 13.56 181.525C14.36 181.525 14.96 181.225 15.36 180.625C15.76 180.005 15.96 179.015 15.96 177.655C15.96 175.875 15.53 174.535 14.67 173.635C14.31 173.295 13.9 173.025 13.44 172.825C12.98 172.625 12.55 172.525 12.15 172.525C11.37 172.525 10.78 172.835 10.38 173.455ZM18.9 144.683L18.9 144.863C19.72 146.103 20.35 147.423 20.79 148.823C21.23 150.203 21.45 151.793 21.45 153.593C21.45 156.093 21.01 158.033 20.13 159.413C19.23 160.773 17.92 161.453 16.2 161.453C15.78 161.453 15.29 161.403 14.73 161.303L4.74 159.383L4.74 149.663L11.67 151.013C11.97 151.073 12.25 151.103 12.51 151.103C13.93 151.103 14.64 150.123 14.64 148.163C14.64 147.043 14.34 146.033 13.74 145.133C13.12 144.173 12.2 143.573 10.98 143.333L4.74 142.103L4.74 132.383L21 135.533L21 145.073L18.9 144.683ZM4.74 120.891L7.17 121.371L7.17 121.191C6.17 119.851 5.44 118.471 4.98 117.051C4.52 115.611 4.29 113.801 4.29 111.621C4.29 110.321 4.33 109.451 4.41 109.011L12.99 110.661C12.77 111.761 12.66 113.061 12.66 114.561C12.66 117.301 13.16 119.431 14.16 120.951C15 122.171 16.13 122.931 17.55 123.231L21 123.891L21 133.581L4.74 130.431L4.74 120.891ZM20.94 77.7061C21.48 79.7861 21.75 82.3761 21.75 85.4761C21.75 90.1161 21.14 93.4761 19.92 95.5561C18.68 97.6161 16.86 98.6461 14.46 98.6461C13.02 98.6461 11.66 98.3861 10.38 97.8661C9.08 97.3261 8 96.5461 7.14 95.5261C6.1 94.2661 5.31 92.5961 4.77 90.5161C4.23 88.4361 3.96 85.8461 3.96 82.7461C3.96 78.1061 4.58 74.7461 5.82 72.6661C7.04 70.5861 8.85 69.5461 11.25 69.5461C12.69 69.5461 14.06 69.8161 15.36 70.3561C16.64 70.8961 17.71 71.6761 18.57 72.6961C19.61 73.9361 20.4 75.6061 20.94 77.7061ZM10.38 80.5261C9.96 81.1461 9.75 82.1361 9.75 83.4961C9.75 85.2961 10.18 86.6261 11.04 87.4861C11.38 87.8261 11.78 88.0961 12.24 88.2961C12.7 88.4961 13.14 88.5961 13.56 88.5961C14.36 88.5961 14.96 88.2961 15.36 87.6961C15.76 87.0761 15.96 86.0861 15.96 84.7261C15.96 82.9461 15.53 81.6061 14.67 80.7061C14.31 80.3661 13.9 80.0961 13.44 79.8961C12.98 79.6961 12.55 79.5961 12.15 79.5961C11.37 79.5961 10.78 79.9061 10.38 80.5261ZM21 37.7004L21 47.9604L12.9 49.5204L12.9 49.7004L21 54.0804L21 64.7304L4.74 69.2904L4.74 59.0004L12.6 57.4104L12.6 57.2004L4.74 52.9704L4.74 43.9704L12.51 42.2904L12.51 42.0804L4.74 37.9404L4.74 27.2004L21 37.7004ZM6.84 17.1023L6.84 16.9223C6.02 15.6823 5.39 14.3723 4.95 12.9923C4.51 11.6123 4.29 10.0123 4.29 8.19234C4.29 5.69234 4.74 3.76234 5.64 2.40234C6.52 1.04234 7.82 0.362343 9.54 0.362343C10.04 0.362343 10.52 0.402343 10.98 0.482342L21 2.40234L21 12.1223L14.07 10.7723C13.73 10.7123 13.45 10.6823 13.23 10.6823C11.81 10.6823 11.1 11.6623 11.1 13.6223C11.1 14.7223 11.4 15.7423 12 16.6823C12.64 17.6623 13.56 18.2623 14.76 18.4823L21 19.6823L21 29.4023L4.74 26.2523L4.74 16.7123L6.84 17.1023Z" fill="white"/>
</svg>
