<svg width="512" height="29" viewBox="0 0 512 29" fill="none" xmlns="http://www.w3.org/2000/svg">
    <path d="M11.24 21.53L9.89 28.4H0.17L4.4 6.74H13.94L13.55 8.66H13.73C14.91 7.86 16.11 7.27 17.33 6.89C18.57 6.49 19.99 6.29 21.59 6.29C24.87 6.29 27.35 6.88 29.03 8.06C30.71 9.24 31.55 10.98 31.55 13.28C31.55 14.62 31.3 15.96 30.8 17.3C30.3 18.62 29.59 19.73 28.67 20.63C26.55 22.71 23.27 23.75 18.83 23.75C17.11 23.75 15.65 23.56 14.45 23.18C13.27 22.8 12.26 22.25 11.42 21.53H11.24ZM17.48 12.02C15.52 12.02 14.07 12.47 13.13 13.37C12.83 13.67 12.59 14.03 12.41 14.45C12.23 14.85 12.14 15.26 12.14 15.68C12.14 17.24 13.53 18.02 16.31 18.02C18.27 18.02 19.67 17.57 20.51 16.67C20.81 16.37 21.04 16 21.2 15.56C21.38 15.1 21.47 14.69 21.47 14.33C21.47 13.57 21.15 13 20.51 12.62C19.89 12.22 18.88 12.02 17.48 12.02ZM34.6414 6.74H44.3614L41.1814 23H31.4614L34.6414 6.74ZM35.6314 1.16H45.4714L44.7214 5.03H34.9114L35.6314 1.16ZM72.7993 23H61.1293L58.3993 19.16L54.4093 23H42.0193L52.4893 14.3L46.2493 6.74H57.2293L59.7493 10.28L63.3793 6.74H75.0793L65.6593 14.75L72.7993 23ZM81.8605 16.73C81.8205 17.61 82.1205 18.27 82.7605 18.71C83.4005 19.15 84.4605 19.37 85.9405 19.37C86.9005 19.37 87.8305 19.24 88.7305 18.98C89.0505 18.88 89.3305 18.74 89.5705 18.56C89.8305 18.36 90.0105 18.18 90.1105 18.02H100.58C100.36 19.06 99.8905 19.96 99.1705 20.72C98.4505 21.48 97.3305 22.11 95.8105 22.61C93.4305 23.37 89.9705 23.75 85.4305 23.75C80.7305 23.75 77.3205 23.14 75.2005 21.92C73.1005 20.7 72.0505 18.89 72.0505 16.49C72.0505 15.03 72.3205 13.66 72.8605 12.38C73.4005 11.08 74.1805 10 75.2005 9.14C76.4605 8.1 78.1405 7.31 80.2405 6.77C82.3605 6.23 85.0005 5.96 88.1605 5.96C92.8005 5.96 96.1805 6.58 98.3005 7.82C100.44 9.06 101.51 10.89 101.51 13.31C101.51 14.45 101.32 15.59 100.94 16.73H81.8605ZM83.6305 11.45C83.2305 11.81 82.9405 12.18 82.7605 12.56H91.6705C91.6305 11.82 91.2905 11.27 90.6505 10.91C90.0105 10.53 89.0105 10.34 87.6505 10.34C85.7905 10.34 84.4505 10.71 83.6305 11.45ZM105.644 1.28H115.364L111.164 23H101.444L105.644 1.28ZM136.199 8.87H136.379C138.559 7.15 141.239 6.29 144.419 6.29C148.159 6.29 150.419 7.16 151.199 8.9C153.519 7.16 156.369 6.29 159.749 6.29C162.069 6.29 163.869 6.73 165.149 7.61C166.449 8.49 167.099 9.78 167.099 11.48C167.099 11.9 167.049 12.39 166.949 12.95L164.999 23H155.309L156.779 15.53C156.819 15.21 156.839 14.99 156.839 14.87C156.839 13.69 156.059 13.1 154.499 13.1C153.559 13.1 152.719 13.37 151.979 13.91C151.299 14.37 150.859 15.11 150.659 16.13L149.309 23H139.619L141.089 15.53C141.129 15.21 141.149 14.99 141.149 14.87C141.149 13.69 140.369 13.1 138.809 13.1C137.809 13.1 136.979 13.36 136.319 13.88C135.599 14.4 135.149 15.15 134.969 16.13L133.619 23H123.929L127.079 6.74H136.619L136.199 8.87ZM189.084 22.94C187.004 23.48 184.414 23.75 181.314 23.75C176.674 23.75 173.314 23.14 171.234 21.92C169.174 20.68 168.144 18.86 168.144 16.46C168.144 15.02 168.404 13.66 168.924 12.38C169.464 11.08 170.244 10 171.264 9.14C172.524 8.1 174.194 7.31 176.274 6.77C178.354 6.23 180.944 5.96 184.044 5.96C188.684 5.96 192.044 6.58 194.124 7.82C196.204 9.04 197.244 10.85 197.244 13.25C197.244 14.69 196.974 16.06 196.434 17.36C195.894 18.64 195.114 19.71 194.094 20.57C192.854 21.61 191.184 22.4 189.084 22.94ZM186.264 12.38C185.644 11.96 184.654 11.75 183.294 11.75C181.494 11.75 180.164 12.18 179.304 13.04C178.964 13.38 178.694 13.78 178.494 14.24C178.294 14.7 178.194 15.14 178.194 15.56C178.194 16.36 178.494 16.96 179.094 17.36C179.714 17.76 180.704 17.96 182.064 17.96C183.844 17.96 185.184 17.53 186.084 16.67C186.424 16.31 186.694 15.9 186.894 15.44C187.094 14.98 187.194 14.55 187.194 14.15C187.194 13.37 186.884 12.78 186.264 12.38ZM195.535 22.19C196.195 22.19 196.725 22.06 197.125 21.8C197.445 21.56 197.645 21.21 197.725 20.75L200.455 6.74H210.175L207.025 22.88C206.785 24.1 206.475 25.08 206.095 25.82C205.715 26.58 205.195 27.17 204.535 27.59C203.755 28.09 202.715 28.43 201.415 28.61C200.115 28.81 198.325 28.91 196.045 28.91C195.045 28.91 194.105 28.88 193.225 28.82L194.215 22.16L195.535 22.19ZM201.445 1.16H211.285L210.535 5.03H200.725L201.445 1.16ZM212.09 6.74H221.81L218.63 23H208.91L212.09 6.74ZM213.08 1.16H222.92L222.17 5.03H212.36L213.08 1.16ZM266.616 1.58L262.506 23H251.916L243.216 11.81H242.976L240.816 23H231.576L235.686 1.58H246.396L254.976 12.59H255.216L257.346 1.58H266.616ZM277.466 8.18L276.866 11.27H293.396L292.286 17.18H275.726L274.616 23H264.776L268.886 1.58H296.156L294.896 8.18H277.466ZM326.125 8.99H316.015L313.315 23H303.475L306.175 8.99H296.095L297.505 1.58H327.535L326.125 8.99ZM335.572 17.93C335.872 19.09 337.112 19.67 339.292 19.67C341.032 19.67 342.152 19.47 342.652 19.07C342.932 18.85 343.072 18.6 343.072 18.32C343.072 18.08 342.922 17.9 342.622 17.78C342.322 17.66 341.792 17.56 341.032 17.48L332.872 16.55C330.612 16.31 328.932 15.89 327.832 15.29C326.732 14.67 326.182 13.68 326.182 12.32C326.182 11.24 326.412 10.29 326.872 9.47C327.352 8.65 328.052 7.99 328.972 7.49C330.112 6.89 331.602 6.49 333.442 6.29C335.302 6.07 337.752 5.96 340.792 5.96C343.732 5.96 346.182 6.1 348.142 6.38C350.102 6.66 351.622 7.17 352.702 7.91C353.802 8.63 354.352 9.65 354.352 10.97C354.352 11.19 354.342 11.36 354.322 11.48H343.522C343.402 10.98 343.002 10.62 342.322 10.4C341.642 10.16 340.782 10.04 339.742 10.04C338.302 10.04 337.322 10.21 336.802 10.55C336.542 10.73 336.412 10.94 336.412 11.18C336.412 11.42 336.572 11.6 336.892 11.72C337.212 11.82 337.792 11.91 338.632 11.99L347.542 12.83C349.682 13.03 351.252 13.43 352.252 14.03C353.272 14.63 353.782 15.63 353.782 17.03C353.782 18.21 353.552 19.24 353.092 20.12C352.632 21 351.932 21.7 350.992 22.22C349.852 22.82 348.282 23.22 346.282 23.42C344.302 23.64 341.562 23.75 338.062 23.75C335.022 23.75 332.522 23.61 330.562 23.33C328.622 23.07 327.122 22.57 326.062 21.83C325.002 21.09 324.472 20.04 324.472 18.68C324.472 18.36 324.482 18.11 324.502 17.93H335.572Z" fill="#232323"/>
    <path d="M374.68 18.71C374.68 21.11 374.99 23.11 375.61 24.71C376.25 26.31 376.88 27.46 377.5 28.16H370.69C370.01 27.6 369.36 26.96 368.74 26.24C368.12 25.52 367.53 24.46 366.97 23.06C366.41 21.68 366.13 20.02 366.13 18.08C366.13 15.94 366.37 14.03 366.85 12.35C367.33 10.67 368.06 9 369.04 7.34C370.06 5.58 371.14 4.18 372.28 3.14C373.44 2.08 374.44 1.3 375.28 0.8H383.38C382.9 1.12 382.26 1.72 381.46 2.6C380.66 3.48 379.83 4.54 378.97 5.78C378.13 7.02 377.4 8.32 376.78 9.68C376.12 11.12 375.6 12.57 375.22 14.03C374.86 15.47 374.68 17.03 374.68 18.71ZM388.943 17.93C389.243 19.09 390.483 19.67 392.663 19.67C394.403 19.67 395.523 19.47 396.023 19.07C396.303 18.85 396.443 18.6 396.443 18.32C396.443 18.08 396.293 17.9 395.993 17.78C395.693 17.66 395.163 17.56 394.403 17.48L386.243 16.55C383.983 16.31 382.303 15.89 381.203 15.29C380.103 14.67 379.553 13.68 379.553 12.32C379.553 11.24 379.783 10.29 380.243 9.47C380.723 8.65 381.423 7.99 382.343 7.49C383.483 6.89 384.973 6.49 386.813 6.29C388.673 6.07 391.123 5.96 394.163 5.96C397.103 5.96 399.553 6.1 401.513 6.38C403.473 6.66 404.993 7.17 406.073 7.91C407.173 8.63 407.723 9.65 407.723 10.97C407.723 11.19 407.713 11.36 407.693 11.48H396.893C396.773 10.98 396.373 10.62 395.693 10.4C395.013 10.16 394.153 10.04 393.113 10.04C391.673 10.04 390.693 10.21 390.173 10.55C389.913 10.73 389.783 10.94 389.783 11.18C389.783 11.42 389.943 11.6 390.263 11.72C390.583 11.82 391.163 11.91 392.003 11.99L400.913 12.83C403.053 13.03 404.623 13.43 405.623 14.03C406.643 14.63 407.153 15.63 407.153 17.03C407.153 18.21 406.923 19.24 406.463 20.12C406.003 21 405.303 21.7 404.363 22.22C403.223 22.82 401.653 23.22 399.653 23.42C397.673 23.64 394.933 23.75 391.433 23.75C388.393 23.75 385.893 23.61 383.933 23.33C381.993 23.07 380.493 22.57 379.433 21.83C378.373 21.09 377.843 20.04 377.843 18.68C377.843 18.36 377.853 18.11 377.873 17.93H388.943ZM429.63 22.94C427.55 23.48 424.96 23.75 421.86 23.75C417.22 23.75 413.86 23.14 411.78 21.92C409.72 20.68 408.69 18.86 408.69 16.46C408.69 15.02 408.95 13.66 409.47 12.38C410.01 11.08 410.79 10 411.81 9.14C413.07 8.1 414.74 7.31 416.82 6.77C418.9 6.23 421.49 5.96 424.59 5.96C429.23 5.96 432.59 6.58 434.67 7.82C436.75 9.04 437.79 10.85 437.79 13.25C437.79 14.69 437.52 16.06 436.98 17.36C436.44 18.64 435.66 19.71 434.64 20.57C433.4 21.61 431.73 22.4 429.63 22.94ZM426.81 12.38C426.19 11.96 425.2 11.75 423.84 11.75C422.04 11.75 420.71 12.18 419.85 13.04C419.51 13.38 419.24 13.78 419.04 14.24C418.84 14.7 418.74 15.14 418.74 15.56C418.74 16.36 419.04 16.96 419.64 17.36C420.26 17.76 421.25 17.96 422.61 17.96C424.39 17.96 425.73 17.53 426.63 16.67C426.97 16.31 427.24 15.9 427.44 15.44C427.64 14.98 427.74 14.55 427.74 14.15C427.74 13.37 427.43 12.78 426.81 12.38ZM459.871 22.94C457.791 23.48 455.201 23.75 452.101 23.75C447.461 23.75 444.101 23.14 442.021 21.92C439.961 20.68 438.931 18.86 438.931 16.46C438.931 15.02 439.191 13.66 439.711 12.38C440.251 11.08 441.031 10 442.051 9.14C443.311 8.1 444.981 7.31 447.061 6.77C449.141 6.23 451.731 5.96 454.831 5.96C459.471 5.96 462.831 6.58 464.911 7.82C466.991 9.04 468.031 10.85 468.031 13.25C468.031 14.69 467.761 16.06 467.221 17.36C466.681 18.64 465.901 19.71 464.881 20.57C463.641 21.61 461.971 22.4 459.871 22.94ZM457.051 12.38C456.431 11.96 455.441 11.75 454.081 11.75C452.281 11.75 450.951 12.18 450.091 13.04C449.751 13.38 449.481 13.78 449.281 14.24C449.081 14.7 448.981 15.14 448.981 15.56C448.981 16.36 449.281 16.96 449.881 17.36C450.501 17.76 451.491 17.96 452.851 17.96C454.631 17.96 455.971 17.53 456.871 16.67C457.211 16.31 457.481 15.9 457.681 15.44C457.881 14.98 457.981 14.55 457.981 14.15C457.981 13.37 457.671 12.78 457.051 12.38ZM480.273 8.84H480.453C481.693 8.02 483.003 7.39 484.383 6.95C485.763 6.51 487.363 6.29 489.183 6.29C491.683 6.29 493.613 6.74 494.973 7.64C496.333 8.52 497.013 9.82 497.013 11.54C497.013 12.04 496.973 12.52 496.893 12.98L494.973 23H485.253L486.603 16.07C486.663 15.73 486.693 15.45 486.693 15.23C486.693 13.81 485.713 13.1 483.753 13.1C482.653 13.1 481.633 13.4 480.693 14C479.713 14.64 479.113 15.56 478.893 16.76L477.693 23H467.973L471.123 6.74H480.663L480.273 8.84ZM502.572 10.25C502.572 7.85 502.252 5.85 501.612 4.25C500.992 2.65 500.372 1.5 499.752 0.8H506.562C509.602 3.24 511.122 6.6 511.122 10.88C511.122 13 510.872 14.9 510.372 16.58C509.892 18.26 509.172 19.94 508.212 21.62C507.212 23.36 506.162 24.72 505.062 25.7C503.982 26.7 502.952 27.52 501.972 28.16H493.842C494.322 27.84 494.962 27.24 495.762 26.36C496.562 25.48 497.382 24.42 498.222 23.18C499.082 21.94 499.822 20.64 500.442 19.28C501.102 17.82 501.622 16.37 502.002 14.93C502.382 13.49 502.572 11.93 502.572 10.25Z" fill="white" fill-opacity="0.6"/>
</svg>
