<svg width="318" height="73" viewBox="0 0 318 73" fill="none" xmlns="http://www.w3.org/2000/svg">
    <path d="M12.52 23.95C12.72 24.87 13.2 25.53 13.96 25.93C14.74 26.31 15.84 26.5 17.26 26.5C19.14 26.5 20.44 26.26 21.16 25.78C21.62 25.48 21.85 25.11 21.85 24.67C21.85 24.25 21.65 23.95 21.25 23.77C20.87 23.59 20.22 23.45 19.3 23.35L10.84 22.45C8.26 22.17 6.31 21.64 4.99 20.86C3.69 20.06 3.04 18.79 3.04 17.05C3.04 15.85 3.28 14.75 3.76 13.75C4.26 12.75 4.98 11.92 5.92 11.26C7.24 10.34 9.03 9.69 11.29 9.31C13.57 8.93 16.49 8.74 20.05 8.74C24.79 8.74 28.34 9.23 30.7 10.21C33.08 11.17 34.27 12.82 34.27 15.16C34.27 15.34 34.25 15.65 34.21 16.09H22.93C22.77 15.43 22.32 14.93 21.58 14.59C20.86 14.23 19.85 14.05 18.55 14.05C16.79 14.05 15.6 14.28 14.98 14.74C14.56 15.04 14.35 15.36 14.35 15.7C14.35 16.04 14.54 16.3 14.92 16.48C15.32 16.64 15.98 16.77 16.9 16.87L25.81 17.68C28.39 17.92 30.32 18.46 31.6 19.3C32.9 20.12 33.55 21.38 33.55 23.08C33.55 24.52 33.24 25.84 32.62 27.04C32 28.22 31.1 29.15 29.92 29.83C28.58 30.59 26.79 31.11 24.55 31.39C22.33 31.69 19.39 31.84 15.73 31.84C12.31 31.84 9.53 31.64 7.39 31.24C5.27 30.84 3.67 30.16 2.59 29.2C1.51 28.22 0.97 26.88 0.97 25.18C0.97 24.78 1 24.37 1.06 23.95H12.52ZM71.5405 31H61.7005L64.2505 17.71H64.0105L56.0605 31H49.0705L46.1005 17.62H45.8305L43.2805 31H34.0405L38.1505 9.58H52.3405L54.3205 19.75H54.5605L60.2305 9.58H75.6505L71.5405 31ZM73.8327 31L77.9427 9.58H87.7827L83.6727 31H73.8327ZM85.9394 31L90.0494 9.58H99.8894L97.1594 23.83H114.709L113.329 31H85.9394ZM127.605 17.53H143.985L143.025 22.45H126.645L126.105 25.24H143.595L142.485 31H115.185L119.295 9.58H146.355L145.305 15.01H128.085L127.605 17.53ZM165.848 24.97L164.648 31H154.748L155.978 24.97L147.128 9.58H158.558L162.008 16.84L168.368 9.58H180.608L165.848 24.97ZM206.29 19.54C207.31 19.9 208.11 20.38 208.69 20.98C209.27 21.58 209.56 22.44 209.56 23.56C209.56 25.6 209.05 27.22 208.03 28.42C206.57 30.14 203.98 31 200.26 31H177.19L181.33 9.58H203.32C205.78 9.58 207.58 10.02 208.72 10.9C209.86 11.76 210.43 12.94 210.43 14.44C210.43 15.34 210.28 16.12 209.98 16.78C209.7 17.42 209.24 17.94 208.6 18.34C207.82 18.82 207.06 19.14 206.32 19.3L206.29 19.54ZM197.5 18.07C198.28 18.07 198.86 17.84 199.24 17.38C199.4 17.2 199.52 17 199.6 16.78C199.7 16.54 199.75 16.33 199.75 16.15C199.75 15.31 199.21 14.89 198.13 14.89H190.15L189.52 18.07H197.5ZM196.33 25.9C197.19 25.9 197.83 25.65 198.25 25.15C198.43 24.93 198.56 24.7 198.64 24.46C198.74 24.22 198.79 24 198.79 23.8C198.79 22.88 198.2 22.42 197.02 22.42H188.68L187.99 25.9H196.33ZM232.788 28.51H221.028L219.348 31H208.308L223.488 9.58H236.898L243.888 31H233.568L232.788 28.51ZM231.018 22.9L229.098 16.78H228.918L224.808 22.9H231.018ZM244.822 31L248.932 9.58H258.772L256.042 23.83H273.592L272.212 31H244.822ZM274.068 31L278.178 9.58H288.018L285.288 23.83H302.838L301.458 31H274.068Z" fill="#BDCBCB"/>
    <path d="M18.52 37.95C18.72 38.87 19.2 39.53 19.96 39.93C20.74 40.31 21.84 40.5 23.26 40.5C25.14 40.5 26.44 40.26 27.16 39.78C27.62 39.48 27.85 39.11 27.85 38.67C27.85 38.25 27.65 37.95 27.25 37.77C26.87 37.59 26.22 37.45 25.3 37.35L16.84 36.45C14.26 36.17 12.31 35.64 10.99 34.86C9.69 34.06 9.04 32.79 9.04 31.05C9.04 29.85 9.28 28.75 9.76 27.75C10.26 26.75 10.98 25.92 11.92 25.26C13.24 24.34 15.03 23.69 17.29 23.31C19.57 22.93 22.49 22.74 26.05 22.74C30.79 22.74 34.34 23.23 36.7 24.21C39.08 25.17 40.27 26.82 40.27 29.16C40.27 29.34 40.25 29.65 40.21 30.09H28.93C28.77 29.43 28.32 28.93 27.58 28.59C26.86 28.23 25.85 28.05 24.55 28.05C22.79 28.05 21.6 28.28 20.98 28.74C20.56 29.04 20.35 29.36 20.35 29.7C20.35 30.04 20.54 30.3 20.92 30.48C21.32 30.64 21.98 30.77 22.9 30.87L31.81 31.68C34.39 31.92 36.32 32.46 37.6 33.3C38.9 34.12 39.55 35.38 39.55 37.08C39.55 38.52 39.24 39.84 38.62 41.04C38 42.22 37.1 43.15 35.92 43.83C34.58 44.59 32.79 45.11 30.55 45.39C28.33 45.69 25.39 45.84 21.73 45.84C18.31 45.84 15.53 45.64 13.39 45.24C11.27 44.84 9.67 44.16 8.59 43.2C7.51 42.22 6.97 40.88 6.97 39.18C6.97 38.78 7 38.37 7.06 37.95H18.52ZM77.5405 45H67.7005L70.2505 31.71H70.0105L62.0605 45H55.0705L52.1005 31.62H51.8305L49.2805 45H40.0405L44.1505 23.58H58.3405L60.3205 33.75H60.5605L66.2305 23.58H81.6505L77.5405 45ZM79.8327 45L83.9427 23.58H93.7827L89.6727 45H79.8327ZM91.9394 45L96.0494 23.58H105.889L103.159 37.83H120.709L119.329 45H91.9394ZM133.605 31.53H149.985L149.025 36.45H132.645L132.105 39.24H149.595L148.485 45H121.185L125.295 23.58H152.355L151.305 29.01H134.085L133.605 31.53ZM171.848 38.97L170.648 45H160.748L161.978 38.97L153.128 23.58H164.558L168.008 30.84L174.368 23.58H186.608L171.848 38.97ZM212.29 33.54C213.31 33.9 214.11 34.38 214.69 34.98C215.27 35.58 215.56 36.44 215.56 37.56C215.56 39.6 215.05 41.22 214.03 42.42C212.57 44.14 209.98 45 206.26 45H183.19L187.33 23.58H209.32C211.78 23.58 213.58 24.02 214.72 24.9C215.86 25.76 216.43 26.94 216.43 28.44C216.43 29.34 216.28 30.12 215.98 30.78C215.7 31.42 215.24 31.94 214.6 32.34C213.82 32.82 213.06 33.14 212.32 33.3L212.29 33.54ZM203.5 32.07C204.28 32.07 204.86 31.84 205.24 31.38C205.4 31.2 205.52 31 205.6 30.78C205.7 30.54 205.75 30.33 205.75 30.15C205.75 29.31 205.21 28.89 204.13 28.89H196.15L195.52 32.07H203.5ZM202.33 39.9C203.19 39.9 203.83 39.65 204.25 39.15C204.43 38.93 204.56 38.7 204.64 38.46C204.74 38.22 204.79 38 204.79 37.8C204.79 36.88 204.2 36.42 203.02 36.42H194.68L193.99 39.9H202.33ZM238.788 42.51H227.028L225.348 45H214.308L229.488 23.58H242.898L249.888 45H239.568L238.788 42.51ZM237.018 36.9L235.098 30.78H234.918L230.808 36.9H237.018ZM250.822 45L254.932 23.58H264.772L262.042 37.83H279.592L278.212 45H250.822ZM280.068 45L284.178 23.58H294.018L291.288 37.83H308.838L307.458 45H280.068Z" fill="white" fill-opacity="0.6"/>
    <path d="M26.52 51.95C26.72 52.87 27.2 53.53 27.96 53.93C28.74 54.31 29.84 54.5 31.26 54.5C33.14 54.5 34.44 54.26 35.16 53.78C35.62 53.48 35.85 53.11 35.85 52.67C35.85 52.25 35.65 51.95 35.25 51.77C34.87 51.59 34.22 51.45 33.3 51.35L24.84 50.45C22.26 50.17 20.31 49.64 18.99 48.86C17.69 48.06 17.04 46.79 17.04 45.05C17.04 43.85 17.28 42.75 17.76 41.75C18.26 40.75 18.98 39.92 19.92 39.26C21.24 38.34 23.03 37.69 25.29 37.31C27.57 36.93 30.49 36.74 34.05 36.74C38.79 36.74 42.34 37.23 44.7 38.21C47.08 39.17 48.27 40.82 48.27 43.16C48.27 43.34 48.25 43.65 48.21 44.09H36.93C36.77 43.43 36.32 42.93 35.58 42.59C34.86 42.23 33.85 42.05 32.55 42.05C30.79 42.05 29.6 42.28 28.98 42.74C28.56 43.04 28.35 43.36 28.35 43.7C28.35 44.04 28.54 44.3 28.92 44.48C29.32 44.64 29.98 44.77 30.9 44.87L39.81 45.68C42.39 45.92 44.32 46.46 45.6 47.3C46.9 48.12 47.55 49.38 47.55 51.08C47.55 52.52 47.24 53.84 46.62 55.04C46 56.22 45.1 57.15 43.92 57.83C42.58 58.59 40.79 59.11 38.55 59.39C36.33 59.69 33.39 59.84 29.73 59.84C26.31 59.84 23.53 59.64 21.39 59.24C19.27 58.84 17.67 58.16 16.59 57.2C15.51 56.22 14.97 54.88 14.97 53.18C14.97 52.78 15 52.37 15.06 51.95H26.52ZM85.5405 59H75.7005L78.2505 45.71H78.0105L70.0605 59H63.0705L60.1005 45.62H59.8305L57.2805 59H48.0405L52.1505 37.58H66.3405L68.3205 47.75H68.5605L74.2305 37.58H89.6505L85.5405 59ZM87.8327 59L91.9427 37.58H101.783L97.6727 59H87.8327ZM99.9394 59L104.049 37.58H113.889L111.159 51.83H128.709L127.329 59H99.9394ZM141.605 45.53H157.985L157.025 50.45H140.645L140.105 53.24H157.595L156.485 59H129.185L133.295 37.58H160.355L159.305 43.01H142.085L141.605 45.53ZM179.848 52.97L178.648 59H168.748L169.978 52.97L161.128 37.58H172.558L176.008 44.84L182.368 37.58H194.608L179.848 52.97ZM220.29 47.54C221.31 47.9 222.11 48.38 222.69 48.98C223.27 49.58 223.56 50.44 223.56 51.56C223.56 53.6 223.05 55.22 222.03 56.42C220.57 58.14 217.98 59 214.26 59H191.19L195.33 37.58H217.32C219.78 37.58 221.58 38.02 222.72 38.9C223.86 39.76 224.43 40.94 224.43 42.44C224.43 43.34 224.28 44.12 223.98 44.78C223.7 45.42 223.24 45.94 222.6 46.34C221.82 46.82 221.06 47.14 220.32 47.3L220.29 47.54ZM211.5 46.07C212.28 46.07 212.86 45.84 213.24 45.38C213.4 45.2 213.52 45 213.6 44.78C213.7 44.54 213.75 44.33 213.75 44.15C213.75 43.31 213.21 42.89 212.13 42.89H204.15L203.52 46.07H211.5ZM210.33 53.9C211.19 53.9 211.83 53.65 212.25 53.15C212.43 52.93 212.56 52.7 212.64 52.46C212.74 52.22 212.79 52 212.79 51.8C212.79 50.88 212.2 50.42 211.02 50.42H202.68L201.99 53.9H210.33ZM246.788 56.51H235.028L233.348 59H222.308L237.488 37.58H250.898L257.888 59H247.568L246.788 56.51ZM245.018 50.9L243.098 44.78H242.918L238.808 50.9H245.018ZM258.822 59L262.932 37.58H272.772L270.042 51.83H287.592L286.212 59H258.822ZM288.068 59L292.178 37.58H302.018L299.288 51.83H316.838L315.458 59H288.068Z" fill="white" fill-opacity="0.3"/>
</svg>
