<svg width="1554" height="333" fill="none" xmlns="http://www.w3.org/2000/svg"><path d="M80.504 68.149 76.049 90.82H43.973l13.959-71.478h31.482l-1.287 6.336h.594c3.894-2.64 7.854-4.587 11.88-5.841 4.092-1.32 8.778-1.98 14.058-1.98 10.824 0 19.008 1.947 24.552 5.841 5.544 3.894 8.316 9.636 8.316 17.226 0 4.422-.825 8.844-2.475 13.266-1.65 4.356-3.993 8.019-7.029 10.989-6.996 6.864-17.82 10.296-32.472 10.296-5.676 0-10.494-.627-14.454-1.881-3.894-1.254-7.227-3.069-10-5.445h-.593zm20.592-31.383c-6.468 0-11.253 1.485-14.355 4.455-.99.99-1.782 2.178-2.376 3.564a9.796 9.796 0 0 0-.891 4.059c0 5.148 4.587 7.722 13.76 7.722 6.469 0 11.089-1.485 13.861-4.455.99-.99 1.749-2.211 2.277-3.663.594-1.518.891-2.871.891-4.059 0-2.508-1.056-4.389-3.168-5.643-2.046-1.32-5.379-1.98-9.999-1.98zm56.633-17.424h32.076L179.311 73h-32.076l10.494-53.658zM160.996.928h32.472l-2.475 12.771H158.62L160.996.928zM283.65 73h-38.511l-9.009-12.672L222.963 73h-40.887l34.551-28.71-20.592-24.948h36.234l8.316 11.682 11.979-11.682h38.61l-31.086 26.433L283.65 73zm29.901-20.691c-.132 2.904.858 5.082 2.97 6.534s5.61 2.178 10.494 2.178c3.168 0 6.237-.429 9.207-1.287 1.056-.33 1.98-.792 2.772-1.386.858-.66 1.452-1.254 1.782-1.782h34.551c-.726 3.432-2.277 6.402-4.653 8.91-2.376 2.508-6.072 4.587-11.088 6.237-7.854 2.508-19.272 3.762-34.254 3.762-15.51 0-26.763-2.013-33.759-6.039-6.93-4.026-10.395-9.999-10.395-17.919 0-4.818.891-9.339 2.673-13.563 1.782-4.29 4.356-7.854 7.722-10.692 4.158-3.432 9.702-6.039 16.632-7.821 6.996-1.782 15.708-2.673 26.136-2.673 15.312 0 26.466 2.046 33.462 6.138 7.062 4.092 10.593 10.131 10.593 18.117 0 3.762-.627 7.524-1.881 11.286h-62.964zm5.841-17.424c-1.32 1.188-2.277 2.409-2.871 3.663h29.403c-.132-2.442-1.254-4.257-3.366-5.445-2.112-1.254-5.412-1.881-9.9-1.881-6.138 0-10.56 1.221-13.266 3.663zm72.646-33.561h32.076L410.254 73h-32.076l13.86-71.676zm65.132 25.047h.594c7.194-5.676 16.038-8.514 26.532-8.514 12.342 0 19.8 2.871 22.374 8.613 7.656-5.742 17.061-8.613 28.215-8.613 7.656 0 13.596 1.452 17.82 4.356 4.29 2.904 6.435 7.161 6.435 12.771 0 1.386-.165 3.003-.495 4.851L552.21 73h-31.977l4.851-24.651c.132-1.056.198-1.782.198-2.178 0-3.894-2.574-5.841-7.722-5.841-3.102 0-5.874.891-8.316 2.673-2.244 1.518-3.696 3.96-4.356 7.326L500.433 73h-31.977l4.851-24.651c.132-1.056.198-1.782.198-2.178 0-3.894-2.574-5.841-7.722-5.841-3.3 0-6.039.858-8.217 2.574-2.376 1.716-3.861 4.191-4.455 7.425L448.656 73h-31.977l10.395-53.658h31.482l-1.386 7.029zm174.52 46.431c-6.864 1.782-15.411 2.673-25.641 2.673-15.312 0-26.4-2.013-33.264-6.039-6.798-4.092-10.197-10.098-10.197-18.018 0-4.752.858-9.24 2.574-13.464 1.782-4.29 4.356-7.854 7.722-10.692 4.158-3.432 9.669-6.039 16.533-7.821 6.864-1.782 15.411-2.673 25.641-2.673 15.312 0 26.4 2.046 33.264 6.138 6.864 4.026 10.296 9.999 10.296 17.919 0 4.752-.891 9.273-2.673 13.563-1.782 4.224-4.356 7.755-7.722 10.593-4.092 3.432-9.603 6.039-16.533 7.821zm-9.306-34.848c-2.046-1.386-5.313-2.079-9.801-2.079-5.94 0-10.329 1.419-13.167 4.257a12.7 12.7 0 0 0-2.673 3.96c-.66 1.518-.99 2.97-.99 4.356 0 2.64.99 4.62 2.97 5.94 2.046 1.32 5.313 1.98 9.801 1.98 5.874 0 10.296-1.419 13.266-4.257a13.984 13.984 0 0 0 2.673-4.059c.66-1.518.99-2.937.99-4.257 0-2.574-1.023-4.521-3.069-5.841zm30.596 32.373c2.178 0 3.927-.429 5.247-1.287 1.056-.792 1.716-1.947 1.98-3.465l9.009-46.233h32.076l-10.395 53.262c-.792 4.026-1.815 7.26-3.069 9.702-1.254 2.508-2.97 4.455-5.148 5.841-2.574 1.65-6.006 2.772-10.296 3.366-4.29.66-10.197.99-17.721.99-3.3 0-6.402-.099-9.306-.297l3.267-21.978 4.356.099zM672.483.928h32.472l-2.475 12.771h-32.373L672.483.928zm35.129 18.414h32.076L729.194 73h-32.076l10.494-53.658zM710.879.928h32.472l-2.475 12.771h-32.373L710.879.928zm62.561 55.341c.99 3.828 5.082 5.742 12.276 5.742 5.742 0 9.438-.66 11.088-1.98.924-.726 1.386-1.551 1.386-2.475 0-.792-.495-1.386-1.485-1.782-.99-.396-2.739-.726-5.247-.99l-26.928-3.069c-7.458-.792-13.002-2.178-16.632-4.158-3.63-2.046-5.445-5.313-5.445-9.801 0-3.564.759-6.699 2.277-9.405 1.584-2.706 3.894-4.884 6.93-6.534 3.762-1.98 8.679-3.3 14.751-3.96 6.138-.726 14.223-1.089 24.255-1.089 9.702 0 17.787.462 24.255 1.386 6.468.924 11.484 2.607 15.048 5.049 3.63 2.376 5.445 5.742 5.445 10.098 0 .726-.033 1.287-.099 1.683h-35.64c-.396-1.65-1.716-2.838-3.96-3.564-2.244-.792-5.082-1.188-8.514-1.188-4.752 0-7.986.561-9.702 1.683-.858.594-1.287 1.287-1.287 2.079 0 .792.528 1.386 1.584 1.782 1.056.33 2.97.627 5.742.891l29.403 2.772c7.062.66 12.243 1.98 15.543 3.96 3.366 1.98 5.049 5.28 5.049 9.9 0 3.894-.759 7.293-2.277 10.197-1.518 2.904-3.828 5.214-6.93 6.93-3.762 1.98-8.943 3.3-15.543 3.96-6.534.726-15.576 1.089-27.126 1.089-10.032 0-18.282-.462-24.75-1.386-6.402-.858-11.352-2.508-14.85-4.95-3.498-2.442-5.247-5.907-5.247-10.395 0-1.056.033-1.881.099-2.475h36.531zM797.504 161.149l-4.455 22.671h-32.076l13.959-71.478h31.482l-1.287 6.336h.594c3.894-2.64 7.854-4.587 11.88-5.841 4.092-1.32 8.778-1.98 14.058-1.98 10.824 0 19.008 1.947 24.552 5.841 5.544 3.894 8.316 9.636 8.316 17.226 0 4.422-.825 8.844-2.475 13.266-1.65 4.356-3.993 8.019-7.029 10.989-6.996 6.864-17.82 10.296-32.472 10.296-5.676 0-10.494-.627-14.454-1.881-3.894-1.254-7.227-3.069-9.999-5.445h-.594zm20.592-31.383c-6.468 0-11.253 1.485-14.355 4.455-.99.99-1.782 2.178-2.376 3.564a9.796 9.796 0 0 0-.891 4.059c0 5.148 4.587 7.722 13.761 7.722 6.468 0 11.088-1.485 13.86-4.455.99-.99 1.749-2.211 2.277-3.663.594-1.518.891-2.871.891-4.059 0-2.508-1.056-4.389-3.168-5.643-2.046-1.32-5.379-1.98-9.999-1.98zm56.633-17.424h32.076L896.311 166h-32.076l10.494-53.658zm3.267-18.414h32.472l-2.475 12.771H875.62l2.376-12.771zM1000.65 166h-38.511l-9.009-12.672L939.963 166h-40.887l34.551-28.71-20.592-24.948h36.234l8.316 11.682 11.979-11.682h38.606l-31.082 26.433L1000.65 166zm29.9-20.691c-.13 2.904.86 5.082 2.97 6.534 2.11 1.452 5.61 2.178 10.5 2.178 3.16 0 6.23-.429 9.2-1.287 1.06-.33 1.98-.792 2.77-1.386.86-.66 1.46-1.254 1.79-1.782h34.55c-.73 3.432-2.28 6.402-4.66 8.91-2.37 2.508-6.07 4.587-11.08 6.237-7.86 2.508-19.28 3.762-34.26 3.762-15.51 0-26.76-2.013-33.76-6.039-6.93-4.026-10.392-9.999-10.392-17.919 0-4.818.891-9.339 2.672-13.563 1.78-4.29 4.36-7.854 7.72-10.692 4.16-3.432 9.71-6.039 16.64-7.821 6.99-1.782 15.7-2.673 26.13-2.673 15.31 0 26.47 2.046 33.46 6.138 7.07 4.092 10.6 10.131 10.6 18.117 0 3.762-.63 7.524-1.88 11.286h-62.97zm5.84-17.424c-1.32 1.188-2.27 2.409-2.87 3.663h29.4c-.13-2.442-1.25-4.257-3.36-5.445-2.11-1.254-5.41-1.881-9.9-1.881-6.14 0-10.56 1.221-13.27 3.663zm72.65-33.561h32.07L1127.25 166h-32.07l13.86-71.676zm65.13 25.047h.59c7.2-5.676 16.04-8.514 26.54-8.514 12.34 0 19.8 2.871 22.37 8.613 7.66-5.742 17.06-8.613 28.22-8.613 7.65 0 13.59 1.452 17.82 4.356 4.29 2.904 6.43 7.161 6.43 12.771 0 1.386-.16 3.003-.49 4.851L1269.21 166h-31.98l4.85-24.651c.14-1.056.2-1.782.2-2.178 0-3.894-2.57-5.841-7.72-5.841-3.1 0-5.87.891-8.32 2.673-2.24 1.518-3.69 3.96-4.35 7.326L1217.43 166h-31.97l4.85-24.651c.13-1.056.2-1.782.2-2.178 0-3.894-2.58-5.841-7.73-5.841-3.3 0-6.04.858-8.21 2.574-2.38 1.716-3.86 4.191-4.46 7.425L1165.66 166h-31.98l10.39-53.658h31.49l-1.39 7.029zm174.52 46.431c-6.86 1.782-15.41 2.673-25.64 2.673-15.31 0-26.4-2.013-33.26-6.039-6.8-4.092-10.2-10.098-10.2-18.018 0-4.752.86-9.24 2.57-13.464 1.78-4.29 4.36-7.854 7.72-10.692 4.16-3.432 9.67-6.039 16.54-7.821 6.86-1.782 15.41-2.673 25.64-2.673 15.31 0 26.4 2.046 33.26 6.138 6.87 4.026 10.3 9.999 10.3 17.919 0 4.752-.89 9.273-2.67 13.563-1.79 4.224-4.36 7.755-7.73 10.593-4.09 3.432-9.6 6.039-16.53 7.821zm-9.31-34.848c-2.04-1.386-5.31-2.079-9.8-2.079-5.94 0-10.33 1.419-13.16 4.257-1.13 1.122-2.02 2.442-2.68 3.96-.66 1.518-.99 2.97-.99 4.356 0 2.64.99 4.62 2.97 5.94 2.05 1.32 5.32 1.98 9.8 1.98 5.88 0 10.3-1.419 13.27-4.257a14.015 14.015 0 0 0 2.67-4.059c.66-1.518.99-2.937.99-4.257 0-2.574-1.02-4.521-3.07-5.841zm30.6 32.373c2.18 0 3.93-.429 5.25-1.287 1.05-.792 1.71-1.947 1.98-3.465l9.01-46.233h32.07l-10.39 53.262c-.8 4.026-1.82 7.26-3.07 9.702-1.26 2.508-2.97 4.455-5.15 5.841-2.57 1.65-6.01 2.772-10.3 3.366-4.29.66-10.19.99-17.72.99-3.3 0-6.4-.099-9.3-.297l3.26-21.978 4.36.099zm19.5-69.399h32.47l-2.47 12.771h-32.37l2.37-12.771zm35.13 18.414h32.08L1446.19 166h-32.07l10.49-53.658zm3.27-18.414h32.47l-2.47 12.771h-32.38l2.38-12.771zm62.56 55.341c.99 3.828 5.08 5.742 12.28 5.742 5.74 0 9.43-.66 11.08-1.98.93-.726 1.39-1.551 1.39-2.475 0-.792-.5-1.386-1.49-1.782-.99-.396-2.73-.726-5.24-.99l-26.93-3.069c-7.46-.792-13-2.178-16.63-4.158-3.63-2.046-5.45-5.313-5.45-9.801 0-3.564.76-6.699 2.28-9.405 1.58-2.706 3.89-4.884 6.93-6.534 3.76-1.98 8.68-3.3 14.75-3.96 6.14-.726 14.22-1.089 24.26-1.089 9.7 0 17.78.462 24.25 1.386 6.47.924 11.48 2.607 15.05 5.049 3.63 2.376 5.44 5.742 5.44 10.098 0 .726-.03 1.287-.1 1.683h-35.64c-.39-1.65-1.71-2.838-3.96-3.564-2.24-.792-5.08-1.188-8.51-1.188-4.75 0-7.99.561-9.7 1.683-.86.594-1.29 1.287-1.29 2.079 0 .792.53 1.386 1.59 1.782 1.05.33 2.97.627 5.74.891l29.4 2.772c7.06.66 12.24 1.98 15.54 3.96 3.37 1.98 5.05 5.28 5.05 9.9 0 3.894-.76 7.293-2.27 10.197-1.52 2.904-3.83 5.214-6.93 6.93-3.77 1.98-8.95 3.3-15.55 3.96-6.53.726-15.57 1.089-27.12 1.089-10.04 0-18.29-.462-24.75-1.386-6.41-.858-11.36-2.508-14.85-4.95-3.5-2.442-5.25-5.907-5.25-10.395 0-1.056.03-1.881.1-2.475h36.53zM931.835 52.383l-1.485 7.557h-10.692l4.653-23.826h10.494l-.429 2.112h.198c1.298-.88 2.618-1.529 3.96-1.947 1.364-.44 2.926-.66 4.686-.66 3.608 0 6.336.649 8.184 1.947 1.848 1.298 2.772 3.212 2.772 5.742 0 1.474-.275 2.948-.825 4.422-.55 1.452-1.331 2.673-2.343 3.663-2.332 2.288-5.94 3.432-10.824 3.432-1.892 0-3.498-.209-4.818-.627-1.298-.418-2.409-1.023-3.333-1.815h-.198zm6.864-10.461c-2.156 0-3.751.495-4.785 1.485-.33.33-.594.726-.792 1.188-.198.44-.297.891-.297 1.353 0 1.716 1.529 2.574 4.587 2.574 2.156 0 3.696-.495 4.62-1.485.33-.33.583-.737.759-1.221.198-.506.297-.957.297-1.353 0-.836-.352-1.463-1.056-1.881-.682-.44-1.793-.66-3.333-.66zm18.877-5.808h10.692L964.77 54h-10.692l3.498-17.886zm1.089-6.138h10.824l-.825 4.257h-10.791l.792-4.257zM999.55 54h-12.837l-3.003-4.224L979.321 54h-13.629l11.517-9.57-6.864-8.316h12.078l2.772 3.894 3.993-3.894h12.872l-10.364 8.811L999.55 54zm9.97-6.897c-.05.968.28 1.694.99 2.178.7.484 1.87.726 3.5.726 1.05 0 2.07-.143 3.06-.429.36-.11.66-.264.93-.462.28-.22.48-.418.59-.594h11.52a6.055 6.055 0 0 1-1.55 2.97c-.79.836-2.03 1.529-3.7 2.079-2.62.836-6.42 1.254-11.42 1.254-5.17 0-8.92-.671-11.25-2.013-2.309-1.342-3.464-3.333-3.464-5.973 0-1.606.297-3.113.891-4.521.593-1.43 1.453-2.618 2.573-3.564 1.39-1.144 3.24-2.013 5.55-2.607 2.33-.594 5.23-.891 8.71-.891 5.1 0 8.82.682 11.15 2.046 2.36 1.364 3.53 3.377 3.53 6.039 0 1.254-.21 2.508-.62 3.762h-20.99zm1.94-5.808c-.44.396-.75.803-.95 1.221h9.8c-.05-.814-.42-1.419-1.12-1.815-.71-.418-1.81-.627-3.3-.627-2.05 0-3.52.407-4.43 1.221zm24.22-11.187h10.69L1041.75 54h-10.69l4.62-23.892zm21.71 8.349h.2c2.4-1.892 5.34-2.838 8.84-2.838 4.12 0 6.6.957 7.46 2.871 2.55-1.914 5.69-2.871 9.41-2.871 2.55 0 4.53.484 5.94 1.452 1.43.968 2.14 2.387 2.14 4.257 0 .462-.05 1.001-.16 1.617L1089.07 54h-10.66l1.62-8.217c.04-.352.06-.594.06-.726 0-1.298-.85-1.947-2.57-1.947-1.03 0-1.96.297-2.77.891-.75.506-1.23 1.32-1.45 2.442L1071.81 54h-10.66l1.62-8.217c.04-.352.07-.594.07-.726 0-1.298-.86-1.947-2.58-1.947-1.1 0-2.01.286-2.74.858-.79.572-1.28 1.397-1.48 2.475L1054.55 54h-10.66l3.47-17.886h10.49l-.46 2.343zm58.17 15.477c-2.28.594-5.13.891-8.54.891-5.11 0-8.8-.671-11.09-2.013-2.27-1.364-3.4-3.366-3.4-6.006 0-1.584.29-3.08.86-4.488.59-1.43 1.45-2.618 2.57-3.564 1.39-1.144 3.22-2.013 5.51-2.607 2.29-.594 5.14-.891 8.55-.891 5.1 0 8.8.682 11.09 2.046 2.29 1.342 3.43 3.333 3.43 5.973 0 1.584-.3 3.091-.89 4.521-.6 1.408-1.45 2.585-2.58 3.531-1.36 1.144-3.2 2.013-5.51 2.607zm-3.1-11.616c-.68-.462-1.77-.693-3.27-.693-1.98 0-3.44.473-4.38 1.419-.38.374-.68.814-.9 1.32-.22.506-.33.99-.33 1.452 0 .88.33 1.54.99 1.98.69.44 1.78.66 3.27.66 1.96 0 3.43-.473 4.42-1.419.38-.396.67-.847.89-1.353.22-.506.33-.979.33-1.419 0-.858-.34-1.507-1.02-1.947zm10.2 10.791c.73 0 1.31-.143 1.75-.429.35-.264.57-.649.66-1.155l3-15.411h10.69l-3.46 17.754c-.27 1.342-.61 2.42-1.02 3.234-.42.836-.99 1.485-1.72 1.947-.86.55-2 .924-3.43 1.122-1.43.22-3.4.33-5.91.33-1.1 0-2.13-.033-3.1-.099l1.09-7.326 1.45.033zm6.5-23.133h10.82l-.82 4.257h-10.79l.79-4.257zm11.71 6.138h10.69L1148.06 54h-10.69l3.5-17.886zm1.09-6.138h10.82l-.82 4.257h-10.79l.79-4.257zm20.85 18.447c.33 1.276 1.7 1.914 4.1 1.914 1.91 0 3.14-.22 3.69-.66.31-.242.46-.517.46-.825 0-.264-.16-.462-.49-.594-.33-.132-.91-.242-1.75-.33l-8.98-1.023c-2.48-.264-4.33-.726-5.54-1.386-1.21-.682-1.82-1.771-1.82-3.267 0-1.188.26-2.233.76-3.135.53-.902 1.3-1.628 2.31-2.178 1.26-.66 2.9-1.1 4.92-1.32 2.05-.242 4.74-.363 8.09-.363 3.23 0 5.92.154 8.08.462 2.16.308 3.83.869 5.02 1.683 1.21.792 1.81 1.914 1.81 3.366 0 .242-.01.429-.03.561h-11.88c-.13-.55-.57-.946-1.32-1.188-.75-.264-1.7-.396-2.84-.396-1.58 0-2.66.187-3.23.561-.29.198-.43.429-.43.693 0 .264.17.462.53.594.35.11.99.209 1.91.297l9.8.924c2.35.22 4.08.66 5.18 1.32 1.12.66 1.68 1.76 1.68 3.3 0 1.298-.25 2.431-.75 3.399-.51.968-1.28 1.738-2.31 2.31-1.26.66-2.99 1.1-5.19 1.32-2.17.242-5.19.363-9.04.363-3.34 0-6.09-.154-8.25-.462-2.13-.286-3.78-.836-4.95-1.65-1.16-.814-1.75-1.969-1.75-3.465 0-.352.01-.627.04-.825h12.17zM16.062 164.942l-1.89 9.618H.564l5.922-30.324h13.356l-.546 2.688h.252c1.652-1.12 3.332-1.946 5.04-2.478 1.736-.56 3.724-.84 5.964-.84 4.592 0 8.064.826 10.416 2.478 2.352 1.652 3.528 4.088 3.528 7.308 0 1.876-.35 3.752-1.05 5.628-.7 1.848-1.694 3.402-2.982 4.662-2.968 2.912-7.56 4.368-13.776 4.368-2.408 0-4.452-.266-6.132-.798-1.652-.532-3.066-1.302-4.242-2.31h-.252zm8.736-13.314c-2.744 0-4.774.63-6.09 1.89-.42.42-.756.924-1.008 1.512a4.156 4.156 0 0 0-.378 1.722c0 2.184 1.946 3.276 5.838 3.276 2.744 0 4.704-.63 5.88-1.89.42-.42.742-.938.966-1.554.252-.644.378-1.218.378-1.722 0-1.064-.448-1.862-1.344-2.394-.868-.56-2.282-.84-4.242-.84zm24.026-7.392h13.608L57.98 167H44.372l4.452-22.764zm1.386-7.812h13.776l-1.05 5.418H49.202l1.008-5.418zM102.245 167H85.907l-3.822-5.376L76.5 167H59.153l14.658-12.18-8.736-10.584h15.372l3.528 4.956 5.082-4.956h16.38L92.249 155.45l9.996 11.55zm12.686-8.778c-.056 1.232.364 2.156 1.26 2.772.896.616 2.38.924 4.452.924 1.344 0 2.646-.182 3.906-.546a3.86 3.86 0 0 0 1.176-.588c.364-.28.616-.532.756-.756h14.658a7.709 7.709 0 0 1-1.974 3.78c-1.008 1.064-2.576 1.946-4.704 2.646-3.332 1.064-8.176 1.596-14.532 1.596-6.58 0-11.354-.854-14.322-2.562-2.94-1.708-4.41-4.242-4.41-7.602 0-2.044.378-3.962 1.134-5.754.756-1.82 1.848-3.332 3.276-4.536 1.764-1.456 4.116-2.562 7.056-3.318 2.968-.756 6.664-1.134 11.088-1.134 6.496 0 11.228.868 14.196 2.604 2.996 1.736 4.494 4.298 4.494 7.686 0 1.596-.266 3.192-.798 4.788h-26.712zm2.478-7.392c-.56.504-.966 1.022-1.218 1.554h12.474c-.056-1.036-.532-1.806-1.428-2.31-.896-.532-2.296-.798-4.2-.798-2.604 0-4.48.518-5.628 1.554zm30.819-14.238h13.608L155.956 167h-13.608l5.88-30.408zm27.632 10.626h.252c3.052-2.408 6.804-3.612 11.256-3.612 5.236 0 8.4 1.218 9.492 3.654 3.248-2.436 7.238-3.654 11.97-3.654 3.248 0 5.768.616 7.56 1.848 1.82 1.232 2.73 3.038 2.73 5.418 0 .588-.07 1.274-.21 2.058L216.18 167h-13.566l2.058-10.458c.056-.448.084-.756.084-.924 0-1.652-1.092-2.478-3.276-2.478-1.316 0-2.492.378-3.528 1.134-.952.644-1.568 1.68-1.848 3.108l-1.89 9.618h-13.566l2.058-10.458c.056-.448.084-.756.084-.924 0-1.652-1.092-2.478-3.276-2.478-1.4 0-2.562.364-3.486 1.092-1.008.728-1.638 1.778-1.89 3.15l-1.89 9.618h-13.566l4.41-22.764h13.356l-.588 2.982zm74.039 19.698c-2.912.756-6.538 1.134-10.878 1.134-6.496 0-11.2-.854-14.112-2.562-2.884-1.736-4.326-4.284-4.326-7.644 0-2.016.364-3.92 1.092-5.712.756-1.82 1.848-3.332 3.276-4.536 1.764-1.456 4.102-2.562 7.014-3.318 2.912-.756 6.538-1.134 10.878-1.134 6.496 0 11.2.868 14.112 2.604 2.912 1.708 4.368 4.242 4.368 7.602 0 2.016-.378 3.934-1.134 5.754-.756 1.792-1.848 3.29-3.276 4.494-1.736 1.456-4.074 2.562-7.014 3.318zm-3.948-14.784c-.868-.588-2.254-.882-4.158-.882-2.52 0-4.382.602-5.586 1.806a5.388 5.388 0 0 0-1.134 1.68c-.28.644-.42 1.26-.42 1.848 0 1.12.42 1.96 1.26 2.52.868.56 2.254.84 4.158.84 2.492 0 4.368-.602 5.628-1.806a5.933 5.933 0 0 0 1.134-1.722c.28-.644.42-1.246.42-1.806 0-1.092-.434-1.918-1.302-2.478zm12.98 13.734c.924 0 1.666-.182 2.226-.546.448-.336.728-.826.84-1.47l3.822-19.614h13.608l-4.41 22.596c-.336 1.708-.77 3.08-1.302 4.116-.532 1.064-1.26 1.89-2.184 2.478-1.092.7-2.548 1.176-4.368 1.428-1.82.28-4.326.42-7.518.42-1.4 0-2.716-.042-3.948-.126l1.386-9.324 1.848.042zm8.274-29.442h13.776l-1.05 5.418h-13.734l1.008-5.418zm14.903 7.812h13.608L291.264 167h-13.608l4.452-22.764zm1.386-7.812h13.776l-1.05 5.418h-13.734l1.008-5.418zm26.541 23.478c.42 1.624 2.156 2.436 5.208 2.436 2.436 0 4.004-.28 4.704-.84.392-.308.588-.658.588-1.05 0-.336-.21-.588-.63-.756-.42-.168-1.162-.308-2.226-.42l-11.424-1.302c-3.164-.336-5.516-.924-7.056-1.764-1.54-.868-2.31-2.254-2.31-4.158 0-1.512.322-2.842.966-3.99.672-1.148 1.652-2.072 2.94-2.772 1.596-.84 3.682-1.4 6.258-1.68 2.604-.308 6.034-.462 10.29-.462 4.116 0 7.546.196 10.29.588 2.744.392 4.872 1.106 6.384 2.142 1.54 1.008 2.31 2.436 2.31 4.284 0 .308-.014.546-.042.714h-15.12c-.168-.7-.728-1.204-1.68-1.512-.952-.336-2.156-.504-3.612-.504-2.016 0-3.388.238-4.116.714-.364.252-.546.546-.546.882 0 .336.224.588.672.756.448.14 1.26.266 2.436.378l12.474 1.176c2.996.28 5.194.84 6.594 1.68 1.428.84 2.142 2.24 2.142 4.2 0 1.652-.322 3.094-.966 4.326-.644 1.232-1.624 2.212-2.94 2.94-1.596.84-3.794 1.4-6.594 1.68-2.772.308-6.608.462-11.508.462-4.256 0-7.756-.196-10.5-.588-2.716-.364-4.816-1.064-6.3-2.1s-2.226-2.506-2.226-4.41c0-.448.014-.798.042-1.05h15.498zM207.035 303.12l-5.4 27.48h-38.88l16.92-86.64h38.16l-1.56 7.68h.72c4.72-3.2 9.52-5.56 14.4-7.08 4.96-1.6 10.64-2.4 17.04-2.4 13.12 0 23.04 2.36 29.76 7.08 6.72 4.72 10.08 11.68 10.08 20.88 0 5.36-1 10.72-3 16.08-2 5.28-4.84 9.72-8.52 13.32-8.48 8.32-21.6 12.48-39.36 12.48-6.88 0-12.72-.76-17.52-2.28-4.72-1.52-8.76-3.72-12.12-6.6h-.72zm24.96-38.04c-7.84 0-13.64 1.8-17.4 5.4-1.2 1.2-2.16 2.64-2.88 4.32-.72 1.6-1.08 3.24-1.08 4.92 0 6.24 5.56 9.36 16.68 9.36 7.84 0 13.44-1.8 16.8-5.4 1.2-1.2 2.12-2.68 2.76-4.44.72-1.84 1.08-3.48 1.08-4.92 0-3.04-1.28-5.32-3.84-6.84-2.48-1.6-6.52-2.4-12.12-2.4zm68.646-21.12h38.88L326.801 309h-38.88l12.72-65.04zm3.96-22.32h39.36l-3 15.48h-39.24l2.88-15.48zM453.272 309h-46.68l-10.92-15.36-15.96 15.36h-49.56l41.88-34.8-24.96-30.24h43.92l10.08 14.16 14.52-14.16h46.8L424.712 276l28.56 33zm36.245-25.08c-.16 3.52 1.04 6.16 3.6 7.92 2.56 1.76 6.8 2.64 12.72 2.64 3.84 0 7.56-.52 11.16-1.56 1.28-.4 2.4-.96 3.36-1.68 1.04-.8 1.76-1.52 2.16-2.16h41.88c-.88 4.16-2.76 7.76-5.64 10.8-2.88 3.04-7.36 5.56-13.44 7.56-9.52 3.04-23.36 4.56-41.52 4.56-18.8 0-32.44-2.44-40.92-7.32-8.4-4.88-12.6-12.12-12.6-21.72 0-5.84 1.08-11.32 3.24-16.44 2.16-5.2 5.28-9.52 9.36-12.96 5.04-4.16 11.76-7.32 20.16-9.48 8.48-2.16 19.04-3.24 31.68-3.24 18.56 0 32.08 2.48 40.56 7.44 8.56 4.96 12.84 12.28 12.84 21.96 0 4.56-.76 9.12-2.28 13.68h-76.32zm7.08-21.12c-1.6 1.44-2.76 2.92-3.48 4.44h35.64c-.16-2.96-1.52-5.16-4.08-6.6-2.56-1.52-6.56-2.28-12-2.28-7.44 0-12.8 1.48-16.08 4.44zm88.055-40.68h38.88l-16.8 86.88h-38.88l16.8-86.88zm78.948 30.36h.72c8.72-6.88 19.44-10.32 32.16-10.32 14.96 0 24 3.48 27.12 10.44 9.28-6.96 20.68-10.44 34.2-10.44 9.28 0 16.48 1.76 21.6 5.28 5.2 3.52 7.8 8.68 7.8 15.48 0 1.68-.2 3.64-.6 5.88l-7.8 40.2h-38.76l5.88-29.88c.16-1.28.24-2.16.24-2.64 0-4.72-3.12-7.08-9.36-7.08-3.76 0-7.12 1.08-10.08 3.24-2.72 1.84-4.48 4.8-5.28 8.88l-5.4 27.48h-38.76l5.88-29.88c.16-1.28.24-2.16.24-2.64 0-4.72-3.12-7.08-9.36-7.08-4 0-7.32 1.04-9.96 3.12-2.88 2.08-4.68 5.08-5.4 9l-5.4 27.48h-38.76l12.6-65.04h38.16l-1.68 8.52zm211.54 56.28c-8.32 2.16-18.68 3.24-31.08 3.24-18.56 0-32-2.44-40.32-7.32-8.24-4.96-12.36-12.24-12.36-21.84 0-5.76 1.04-11.2 3.12-16.32 2.16-5.2 5.28-9.52 9.36-12.96 5.04-4.16 11.72-7.32 20.04-9.48 8.32-2.16 18.68-3.24 31.08-3.24 18.56 0 32 2.48 40.32 7.44 8.32 4.88 12.48 12.12 12.48 21.72 0 5.76-1.08 11.24-3.24 16.44-2.16 5.12-5.28 9.4-9.36 12.84-4.96 4.16-11.64 7.32-20.04 9.48zm-11.28-42.24c-2.48-1.68-6.44-2.52-11.88-2.52-7.2 0-12.52 1.72-15.96 5.16-1.36 1.36-2.44 2.96-3.24 4.8-.8 1.84-1.2 3.6-1.2 5.28 0 3.2 1.2 5.6 3.6 7.2 2.48 1.6 6.44 2.4 11.88 2.4 7.12 0 12.48-1.72 16.08-5.16a16.95 16.95 0 0 0 3.24-4.92c.8-1.84 1.2-3.56 1.2-5.16 0-3.12-1.24-5.48-3.72-7.08zm37.085 39.24c2.64 0 4.76-.52 6.36-1.56 1.28-.96 2.08-2.36 2.4-4.2l10.92-56.04h38.88l-12.6 64.56c-.96 4.88-2.2 8.8-3.72 11.76-1.52 3.04-3.6 5.4-6.24 7.08-3.12 2-7.28 3.36-12.48 4.08-5.2.8-12.36 1.2-21.48 1.2-4 0-7.76-.12-11.28-.36l3.96-26.64 5.28.12zm23.64-84.12h39.36l-3 15.48h-39.24l2.88-15.48zm42.581 22.32h38.884L993.326 309h-38.88l12.72-65.04zm3.96-22.32h39.364l-3 15.48h-39.244l2.88-15.48zm75.834 67.08c1.2 4.64 6.16 6.96 14.88 6.96 6.96 0 11.44-.8 13.44-2.4 1.12-.88 1.68-1.88 1.68-3 0-.96-.6-1.68-1.8-2.16-1.2-.48-3.32-.88-6.36-1.2l-32.64-3.72c-9.04-.96-15.76-2.64-20.16-5.04-4.4-2.48-6.6-6.44-6.6-11.88 0-4.32.92-8.12 2.76-11.4 1.92-3.28 4.72-5.92 8.4-7.92 4.56-2.4 10.52-4 17.88-4.8 7.44-.88 17.24-1.32 29.4-1.32 11.76 0 21.56.56 29.4 1.68 7.84 1.12 13.92 3.16 18.24 6.12 4.4 2.88 6.6 6.96 6.6 12.24 0 .88-.04 1.56-.12 2.04h-43.2c-.48-2-2.08-3.44-4.8-4.32-2.72-.96-6.16-1.44-10.32-1.44-5.76 0-9.68.68-11.76 2.04-1.04.72-1.56 1.56-1.56 2.52s.64 1.68 1.92 2.16c1.28.4 3.6.76 6.96 1.08l35.64 3.36c8.56.8 14.84 2.4 18.84 4.8 4.08 2.4 6.12 6.4 6.12 12 0 4.72-.92 8.84-2.76 12.36-1.84 3.52-4.64 6.32-8.4 8.4-4.56 2.4-10.84 4-18.84 4.8-7.92.88-18.88 1.32-32.88 1.32-12.16 0-22.16-.56-30-1.68-7.76-1.04-13.76-3.04-18-6s-6.36-7.16-6.36-12.6c0-1.28.04-2.28.12-3h44.28z" fill="#fff" fill-opacity=".3"/></svg>