<svg width="139" height="16" viewBox="0 0 139 16" fill="none" xmlns="http://www.w3.org/2000/svg">
    <path d="M22 15H15.16L14.12 9.6H14L11.08 15H3.98L0.94 4.16H7.8L8.86 9.4H9L11.82 4.16H17.82L18.94 9.34H19.08L21.84 4.16H29L22 15ZM45.2206 13.28C45.1006 13.8533 45.0406 14.26 45.0406 14.5C45.0406 14.6333 45.0606 14.76 45.1006 14.88L45.0806 15H38.7206C38.6806 14.92 38.6606 14.8067 38.6606 14.66C38.6606 14.5667 38.6873 14.32 38.7406 13.92L38.8006 13.56C38.134 14.16 37.254 14.6333 36.1606 14.98C35.0673 15.3267 33.8073 15.5 32.3806 15.5C30.714 15.5 29.3606 15.2333 28.3206 14.7C27.294 14.1533 26.7806 13.28 26.7806 12.08C26.7806 10.7467 27.194 9.80667 28.0206 9.26C28.8473 8.7 29.9873 8.37333 31.4406 8.28L38.3806 7.86C38.8206 7.83333 39.154 7.75333 39.3806 7.62C39.6073 7.48667 39.7206 7.31333 39.7206 7.1C39.7206 6.88667 39.574 6.73333 39.2806 6.64C38.9873 6.53333 38.5273 6.48 37.9006 6.48C36.5673 6.48 35.6873 6.80667 35.2606 7.46H28.4206C28.634 6.22 29.314 5.29333 30.4606 4.68C31.234 4.28 32.2273 4.00667 33.4406 3.86C34.6673 3.71333 36.2673 3.64 38.2406 3.64C40.0806 3.64 41.5873 3.72667 42.7606 3.9C43.934 4.06 44.834 4.36 45.4606 4.8C46.0873 5.24 46.4006 5.86 46.4006 6.66C46.4006 6.88667 46.3806 7.12 46.3406 7.36L45.2206 13.28ZM39.3806 10.04C39.1673 10.16 38.814 10.2467 38.3206 10.3L35.0206 10.72C34.5673 10.7733 34.2006 10.8867 33.9206 11.06C33.6406 11.2333 33.5006 11.4733 33.5006 11.78C33.5006 12.0867 33.6273 12.3067 33.8806 12.44C34.134 12.56 34.5273 12.62 35.0606 12.62C36.1673 12.62 37.1273 12.4333 37.9406 12.06C38.7673 11.6733 39.234 11.0933 39.3406 10.32L39.3806 10.04ZM56.3114 10.6C57.0981 10.6 57.7647 10.58 58.3114 10.54L57.4314 15C57.0714 15.04 56.5447 15.08 55.8514 15.12C55.1581 15.16 54.5381 15.18 53.9914 15.18C52.5914 15.18 51.4714 15.08 50.6314 14.88C49.8047 14.68 49.2047 14.36 48.8314 13.92C48.4581 13.48 48.2714 12.9 48.2714 12.18C48.2714 11.8333 48.3247 11.4067 48.4314 10.9L49.1314 7.32H47.0514L47.6714 4.16H49.7514L50.3114 1.28H56.7914L56.2314 4.16H59.5714L58.9514 7.32H55.6114L55.1314 9.8C55.1181 9.85333 55.1114 9.93333 55.1114 10.04C55.1114 10.2533 55.1981 10.4 55.3714 10.48C55.5581 10.56 55.8714 10.6 56.3114 10.6ZM80.9789 15H74.1389L73.0989 9.6H72.9789L70.0589 15H62.9589L59.9189 4.16H66.7789L67.8389 9.4H67.9789L70.7989 4.16H76.7989L77.9189 9.34H78.0589L80.8189 4.16H87.9789L80.9789 15ZM104.2 13.28C104.08 13.8533 104.02 14.26 104.02 14.5C104.02 14.6333 104.04 14.76 104.08 14.88L104.06 15H97.6995C97.6595 14.92 97.6395 14.8067 97.6395 14.66C97.6395 14.5667 97.6662 14.32 97.7195 13.92L97.7795 13.56C97.1129 14.16 96.2329 14.6333 95.1395 14.98C94.0462 15.3267 92.7862 15.5 91.3595 15.5C89.6929 15.5 88.3395 15.2333 87.2995 14.7C86.2729 14.1533 85.7595 13.28 85.7595 12.08C85.7595 10.7467 86.1729 9.80667 86.9995 9.26C87.8262 8.7 88.9662 8.37333 90.4195 8.28L97.3595 7.86C97.7995 7.83333 98.1329 7.75333 98.3595 7.62C98.5862 7.48667 98.6995 7.31333 98.6995 7.1C98.6995 6.88667 98.5529 6.73333 98.2595 6.64C97.9662 6.53333 97.5062 6.48 96.8795 6.48C95.5462 6.48 94.6662 6.80667 94.2395 7.46H87.3995C87.6129 6.22 88.2929 5.29333 89.4395 4.68C90.2129 4.28 91.2062 4.00667 92.4195 3.86C93.6462 3.71333 95.2462 3.64 97.2195 3.64C99.0595 3.64 100.566 3.72667 101.74 3.9C102.913 4.06 103.813 4.36 104.44 4.8C105.066 5.24 105.38 5.86 105.38 6.66C105.38 6.88667 105.36 7.12 105.32 7.36L104.2 13.28ZM98.3595 10.04C98.1462 10.16 97.7929 10.2467 97.2995 10.3L93.9995 10.72C93.5462 10.7733 93.1795 10.8867 92.8995 11.06C92.6195 11.2333 92.4795 11.4733 92.4795 11.78C92.4795 12.0867 92.6062 12.3067 92.8595 12.44C93.1129 12.56 93.5062 12.62 94.0395 12.62C95.1462 12.62 96.1062 12.4333 96.9195 12.06C97.7462 11.6733 98.2129 11.0933 98.3195 10.32L98.3595 10.04ZM115.29 10.6C116.077 10.6 116.744 10.58 117.29 10.54L116.41 15C116.05 15.04 115.524 15.08 114.83 15.12C114.137 15.16 113.517 15.18 112.97 15.18C111.57 15.18 110.45 15.08 109.61 14.88C108.784 14.68 108.184 14.36 107.81 13.92C107.437 13.48 107.25 12.9 107.25 12.18C107.25 11.8333 107.304 11.4067 107.41 10.9L108.11 7.32H106.03L106.65 4.16H108.73L109.29 1.28H115.77L115.21 4.16H118.55L117.93 7.32H114.59L114.11 9.8C114.097 9.85333 114.09 9.93333 114.09 10.04C114.09 10.2533 114.177 10.4 114.35 10.48C114.537 10.56 114.85 10.6 115.29 10.6ZM119.353 5.52C119.633 4.33333 120.1 3.39333 120.753 2.7C121.406 1.99333 122.266 1.46 123.333 1.1C124.146 0.846666 125.066 0.666666 126.093 0.559999C127.12 0.453333 128.386 0.4 129.893 0.4C131.826 0.4 133.42 0.513333 134.673 0.739999C135.926 0.953333 136.873 1.32 137.513 1.84C138.153 2.36 138.473 3.06667 138.473 3.96C138.473 4.4 138.406 4.82667 138.273 5.24C138.14 5.64 137.94 5.98667 137.673 6.28C137.393 6.58667 137.033 6.85333 136.593 7.08C136.153 7.30667 135.58 7.54 134.873 7.78L133.093 8.38C132.466 8.59333 132.02 8.8 131.753 9C131.5 9.2 131.313 9.41333 131.193 9.64L131.113 9.82H124.713L124.773 9.52C124.866 8.94667 125.046 8.48 125.313 8.12C125.58 7.76 125.953 7.45333 126.433 7.2C126.926 6.93333 127.606 6.66 128.473 6.38L129.973 5.88C130.493 5.72 130.88 5.54667 131.133 5.36C131.373 5.17333 131.493 4.96667 131.493 4.74C131.493 4.20667 130.846 3.94 129.553 3.94C127.846 3.94 126.74 4.46667 126.233 5.52H119.353ZM124.453 10.8H131.033L130.193 15H123.633L124.453 10.8Z" fill="white" fill-opacity="0.6"/>
</svg>
